<?xml version="1.0" encoding="UTF-8"?>
<svg version="1.1" xmlns="http://www.w3.org/2000/svg" width="1024" height="1024">
<path d="M0 0 C337.92 0 675.84 0 1024 0 C1024 337.92 1024 675.84 1024 1024 C686.08 1024 348.16 1024 0 1024 C0 686.08 0 348.16 0 0 Z " fill="#FEFEFE" transform="translate(0,0)"/>
<path d="M0 0 C20.75642904 -2.07484489 20.75642904 -2.07484489 26.89453125 2.1796875 C29.68888653 4.61092489 32.08172153 7.37979024 34.45019531 10.22070312 C37.18284048 13.35799329 40.30066249 16.07932592 43.375 18.875 C44.65275875 20.06717272 45.92879756 21.26119146 47.203125 22.45703125 C49.64096523 24.73644914 52.08845068 27.00452505 54.546875 29.26171875 C63.12435474 37.16137872 71.40353646 45.32668999 79.59228516 53.62915039 C84.02686483 58.10813506 88.51529822 62.42483685 93.30053711 66.52758789 C95.39944206 68.34607601 97.36741741 70.26867364 99.3125 72.25 C99.94800781 72.89453125 100.58351563 73.5390625 101.23828125 74.203125 C101.81964844 74.79609375 102.40101563 75.3890625 103 76 C103.51691406 76.43828125 104.03382813 76.8765625 104.56640625 77.328125 C106.68860775 79.80306299 107.50735708 82.4411878 108.625 85.5 C108.87008301 86.1698291 109.11516602 86.8396582 109.36767578 87.52978516 C111.98183428 94.77228986 114.42547155 102.07557874 116.875 109.375 C117.48335693 111.18581055 117.48335693 111.18581055 118.10400391 113.03320312 C118.66740479 114.72993164 118.66740479 114.72993164 119.2421875 116.4609375 C119.75048096 117.98920166 119.75048096 117.98920166 120.26904297 119.54833984 C121 122 121 122 121 124 C121.60585938 123.5153125 122.21171875 123.030625 122.8359375 122.53125 C128.890625 117.6875 134.9453125 112.84375 141 108 C141.74019882 107.31650986 142.48039764 106.63301971 143.24302673 105.92881775 C146.54925095 103.61573622 148.43219892 103.4291998 152.43579102 103.27954102 C153.71805069 103.22431778 155.00031036 103.16909454 156.32142639 103.11219788 C157.71553044 103.07400245 159.10969489 103.03796019 160.50390625 103.00390625 C161.94775101 102.96092438 163.39159354 102.91786792 164.83543396 102.8747406 C167.86221367 102.7903847 170.88885253 102.72390905 173.91625977 102.66674805 C177.76632602 102.59026269 181.61027987 102.444062 185.45748997 102.2804575 C188.44194102 102.16599816 191.42599163 102.10279214 194.41215324 102.05277824 C195.82903225 102.02063453 197.24563472 101.97018297 198.66113472 101.89990425 C206.06964297 101.55100182 211.4866587 101.91807508 217.14153194 106.84632778 C219.5297062 109.14332457 221.75644827 111.56134298 224 114 C226.34577513 115.99962044 228.77385351 117.8534312 231.25 119.6875 C231.81589844 120.11482422 232.38179687 120.54214844 232.96484375 120.98242188 C234.30575869 121.99378992 235.65219052 122.99783844 237 124 C237.11238007 123.45114639 237.22476013 122.90229279 237.34054565 122.33680725 C239.04265545 114.32198269 241.60029623 106.69017517 244.265625 98.95239258 C244.83797684 97.27745045 245.40019182 95.59900969 245.95214844 93.91723633 C251.71291662 76.37292299 251.71291662 76.37292299 260 70 C261.3292831 68.83648978 262.65350165 67.66716865 263.97265625 66.4921875 C264.96289795 65.63898926 264.96289795 65.63898926 265.97314453 64.76855469 C269.5489084 61.64848321 272.98787944 58.38312758 276.4375 55.125 C277.18249756 54.42318604 277.92749512 53.72137207 278.69506836 52.99829102 C283.24885602 48.69525272 287.71241418 44.31892029 292.11328125 39.859375 C294.56166422 37.44647584 297.14032719 35.21349223 299.7421875 32.96875 C309.25516489 24.67369705 318.22929725 15.87006984 327.08349609 6.87963867 C327.82293457 6.13174072 328.56237305 5.38384277 329.32421875 4.61328125 C329.98510498 3.94079346 330.64599121 3.26830566 331.3269043 2.57543945 C334.32311656 -0.2458881 336.4348783 -0.1187638 340.4453125 -0.09765625 C342.05986328 -0.09282227 342.05986328 -0.09282227 343.70703125 -0.08789062 C344.83496094 -0.07951172 345.96289062 -0.07113281 347.125 -0.0625 C348.26066406 -0.05798828 349.39632812 -0.05347656 350.56640625 -0.04882812 C353.37765638 -0.03701615 356.1888023 -0.02054507 359 0 C354.16998067 5.81478056 348.98093733 11.16932653 343.625 16.5 C342.81289063 17.31597656 342.00078125 18.13195312 341.1640625 18.97265625 C340.3596875 19.77574219 339.5553125 20.57882813 338.7265625 21.40625 C337.65269287 22.47842773 337.65269287 22.47842773 336.55712891 23.57226562 C334.51964753 25.50664741 332.45459004 27.34397004 330.32592773 29.17407227 C325.35112826 33.50054855 320.71342119 38.14302631 316.05859375 42.80859375 C314.6688308 44.19692162 314.6688308 44.19692162 313.25099182 45.61329651 C311.30217639 47.56064855 309.35515263 49.50976913 307.40942383 51.46020508 C304.93636139 53.93896395 302.45883467 56.41320431 299.97993374 58.8861227 C297.58703799 61.27450145 295.19799682 63.6667208 292.80859375 66.05859375 C291.48957314 67.37457802 291.48957314 67.37457802 290.14390564 68.71714783 C285.75142008 73.12622431 281.50380406 77.59170805 277.46842957 82.33087158 C276 84 276 84 273.73779297 86.0480957 C271.31289935 88.77175747 270.32790178 91.82924866 269.1953125 95.23046875 C268.94884979 95.93915604 268.70238708 96.64784332 268.44845581 97.37800598 C267.66302255 99.64423485 266.89368715 101.91554329 266.125 104.1875 C265.61696525 105.6637835 265.10785916 107.13969878 264.59765625 108.61523438 C263.57848058 111.56644977 262.56514646 114.51957706 261.55566406 117.47412109 C259.09132317 124.66836854 256.54265775 131.83314516 254 139 C254.59603027 139.28665527 255.19206055 139.57331055 255.80615234 139.86865234 C258.95170701 141.49078681 261.76100709 143.55983687 264.625 145.625 C265.24165527 146.0686792 265.85831055 146.5123584 266.49365234 146.96948242 C285.32773375 160.60989357 285.32773375 160.60989357 286.38821411 165.95768738 C286.55921713 168.3522757 286.60562692 170.72037451 286.609375 173.12109375 C286.63540298 174.45400452 286.63540298 174.45400452 286.66195679 175.81384277 C286.71272517 178.6885673 286.7342862 181.5623829 286.75 184.4375 C286.77431565 187.38490461 286.80018823 190.33229154 286.8265686 193.27967834 C286.84316981 195.2110834 286.85700481 197.14251431 286.86801147 199.07395935 C286.91116871 204.19121771 287.12126428 209.21698997 287.6484375 214.3125 C288.81433651 226.65617595 288.81433651 226.65617595 285.55273438 230.86962891 C281.60195374 234.59408446 277.10268189 237.16946549 272.33154297 239.703125 C268.6479107 241.75207313 265.31935154 244.24446442 261.9375 246.75 C260.78145118 247.58022224 259.62405295 248.40857123 258.46484375 249.234375 C257.65144531 249.81703125 256.83804688 250.3996875 256 251 C256.5261792 251.40089844 257.0523584 251.80179688 257.59448242 252.21484375 C259.19730381 253.436041 260.7999922 254.65741282 262.40258789 255.87890625 C264.27451813 257.30463869 266.14741855 258.72909813 268.02124023 260.15234375 C273.01403608 263.94748555 277.98856951 267.76275024 282.9296875 271.625 C283.87432861 272.35847656 284.81896973 273.09195312 285.79223633 273.84765625 C287.61577935 275.2644497 289.43351371 276.68875645 291.24487305 278.12109375 C292.072854 278.76175781 292.90083496 279.40242188 293.75390625 280.0625 C294.47908447 280.63097656 295.2042627 281.19945312 295.95141602 281.78515625 C298.17646946 283.34004807 298.17646946 283.34004807 302 283 C304.40041969 281.1982281 304.40041969 281.1982281 306.79975891 278.68798828 C307.26784617 278.22402429 307.73593343 277.76006029 308.21820515 277.28203678 C309.78835715 275.72083303 311.34376873 274.14572128 312.8996582 272.5703125 C314.02102969 271.44944968 315.14327439 270.32945988 316.2663269 269.21028137 C319.31897681 266.16306304 322.3590284 263.10354876 325.39690042 260.0416069 C328.58050631 256.8367209 331.77504115 253.64276514 334.9683075 250.44750977 C340.33570434 245.073658 345.69563938 239.69245798 351.05053711 234.30615234 C357.90813313 227.40838589 364.77702676 220.52199135 371.64991474 213.63946533 C377.57024679 207.71080175 383.48612019 201.77769503 389.40087485 195.84346771 C390.66714119 194.57316158 391.9335572 193.30300462 393.20012307 192.03299713 C396.8180614 188.40521174 400.43359767 184.77506772 404.04525375 181.14102745 C405.1364113 180.0437957 406.22837023 178.94736018 407.32122231 177.85181618 C412.56942284 172.58948491 417.7548921 167.32657719 422.51089287 161.60724449 C428.31621436 155.34136154 437.15283335 152.69344472 444.88671875 149.6484375 C446.15127021 149.144461 447.41557236 148.63985854 448.67964172 148.13467407 C451.3329921 147.07608595 453.98827582 146.02256878 456.64526367 144.97314453 C459.9552206 143.66578279 463.26173371 142.34999967 466.56696796 141.03075027 C484.63678068 133.81988171 502.78942527 126.84766966 521 120 C522.84585549 119.30406193 524.69164537 118.60794982 526.53735352 117.91162109 C537.21941237 113.88438464 547.91225764 109.88589732 558.60742188 105.89361572 C560.92751636 105.02707227 563.24702416 104.15897551 565.56640625 103.29052734 C569.04848337 101.98744796 572.53288484 100.69079294 576.01931763 99.39941406 C577.87292923 98.71146479 579.72446903 98.01794118 581.57592773 97.32421875 C584.70361629 96.17057237 587.84480649 95.07560985 591 94 C591.84014648 93.67580078 592.68029297 93.35160156 593.54589844 93.01757812 C595.87810483 92.25431058 597.55289624 91.80717621 600 92 C603.07488282 93.85696813 605.12283131 96.35971743 607.375 99.125 C608.01638916 99.86113525 608.65777832 100.59727051 609.31860352 101.35571289 C610.61963268 102.85003967 611.90926445 104.35436991 613.18701172 105.86865234 C615.68565657 108.80605734 618.30721309 111.61856642 620.9375 114.4375 C625.33700386 119.25192713 629.68394856 124.11074469 634 129 C628.3957857 142.16389715 622.69518558 155.28090912 616.88864136 168.35675049 C610.69161194 182.31648072 604.54320253 196.29220384 598.56713867 210.34814453 C595.65312011 217.18590542 592.69012798 223.99979963 589.69140625 230.80078125 C589.31040771 231.66552063 588.92940918 232.53026001 588.53686523 233.42120361 C586.57911634 237.86272632 584.61657551 242.30205758 582.64794922 246.73876953 C579.13159608 254.68810195 575.68698014 262.63992708 572.56640625 270.75390625 C572.04623992 272.08732719 571.52605812 273.4207421 571.00585938 274.75415039 C570.07203911 277.15377175 569.18516671 279.55610376 568.31835938 281.98217773 C565.02938566 290.48489314 560.39332433 294.81928586 553 300 C552.25177979 300.55671387 551.50355957 301.11342773 550.73266602 301.68701172 C548.67473552 303.21672796 546.59279144 304.70592727 544.5 306.1875 C542.93561643 307.30647916 541.37183422 308.42629945 539.80859375 309.546875 C539.01565918 310.11470703 538.22272461 310.68253906 537.40576172 311.26757812 C533.43530199 314.12676041 529.49820311 317.03074685 525.5625 319.9375 C524.78060303 320.51483887 523.99870605 321.09217773 523.19311523 321.68701172 C521.60255722 322.86178341 520.01214442 324.03675173 518.421875 325.21191406 C515.94979373 327.03706762 513.47528799 328.8588857 511 330.6796875 C503.38766037 336.27983627 495.78966207 341.89589784 488.23828125 347.578125 C483.90631426 350.82674713 479.54589292 354.03697543 475.1875 357.25 C474.38634766 357.84103516 473.58519531 358.43207031 472.75976562 359.04101562 C471.21613958 360.17781445 469.66399816 361.30315308 468.10302734 362.41601562 C466.01499864 363.91203886 466.01499864 363.91203886 464.43212891 365.56835938 C461.73392804 368.10475565 459.77687961 368.97969635 456.02354431 369.07778931 C454.21352684 368.94187881 454.21352684 368.94187881 452.36694336 368.80322266 C451.67719547 368.75190374 450.98744759 368.70058483 450.27679825 368.6477108 C439.22645246 367.76915343 428.21401399 366.42994005 417.203125 365.1640625 C414.71802598 364.88096293 412.23289763 364.59812073 409.7477417 364.31552124 C404.56004109 363.72467818 399.37267821 363.13097583 394.18554688 362.53515625 C387.59258584 361.77805282 380.99887411 361.02773586 374.40489578 360.27955055 C369.27738486 359.69704313 364.15027582 359.11105785 359.02327728 358.5240593 C356.59493235 358.24640688 354.16647362 357.96974769 351.73789215 357.69417191 C340.31778822 356.3964119 328.91151121 355.05981748 317.54199219 353.36865234 C316.71415852 353.24589746 315.88632484 353.12314259 315.0334053 352.99666786 C311.91528176 352.51786292 308.99882597 351.99960866 306 351 C306.24556641 351.84304688 306.24556641 351.84304688 306.49609375 352.703125 C307.31793805 356.44920601 307.05611316 360.18430506 307 364 C307.69648651 364.10517441 308.39297302 364.21034882 309.11056519 364.31871033 C317.38367658 365.62607427 325.49202478 367.42399815 333.6328125 369.37890625 C335.02636483 369.71034053 336.41998738 370.04147971 337.81367493 370.37234497 C349.80020008 373.22357877 361.7736305 376.1302056 373.74494934 379.04454041 C380.81962274 380.76446866 387.89905742 382.45014553 395.00576782 384.03378296 C422.95327728 390.26873006 422.95327728 390.26873006 430.03515625 400.80859375 C430.68355469 401.86175781 431.33195313 402.91492188 432 404 C433.33377162 405.6830325 434.6869444 407.35094211 436.0625 409 C436.99449219 410.19302734 436.99449219 410.19302734 437.9453125 411.41015625 C440.37806259 414.47653136 442.89965021 417.45803911 445.4375 420.4375 C449.58409387 425.31033348 453.65796663 430.23515114 457.6953125 435.19921875 C460.2203333 438.26776097 462.79496117 441.29029824 465.375 444.3125 C469.7002987 449.38805159 473.91994087 454.53734607 477.9206543 459.87426758 C480.11464715 462.77068658 482.13189645 465.11297832 484.9140625 467.49609375 C489.45695626 471.59749502 491.67687828 474.37792846 492.42529297 480.45117188 C492.8624344 489.3160948 492.54824117 498.14379648 492 507 C489.37875897 508.31062051 488.34947097 507.7887868 485.52099609 507.1105957 C484.57845474 506.8882576 483.63591339 506.66591949 482.66481018 506.43684387 C481.6281572 506.18569321 480.59150421 505.93454254 479.5234375 505.67578125 C477.89322914 505.2933149 477.89322914 505.2933149 476.23008728 504.90312195 C470.05327174 503.45076579 463.89130031 501.94545766 457.73510742 500.40820312 C455.11787572 499.76196196 452.49902702 499.12270381 449.87890625 498.48828125 C449.21757124 498.32782444 448.55623623 498.16736763 447.87486076 498.00204849 C438.60365898 495.77971932 429.47668951 494.39467398 419.96484375 493.60546875 C374.09589305 489.05737693 349.78924871 459.57351433 320.87074757 426.3598938 C318.03152663 423.10868554 315.07781191 420.02548597 312 417 C310.20535078 415.1617954 308.41247352 413.32185966 306.62109375 411.48046875 C305.0875704 409.91749275 303.55215325 408.3564049 302.01586914 406.79614258 C300.95826399 405.71825235 299.90425221 404.63682527 298.85375977 403.55200195 C297.3271967 401.9770293 295.78816372 400.41524248 294.24609375 398.85546875 C292.87988892 397.45784302 292.87988892 397.45784302 291.48608398 396.03198242 C289.01895812 393.578101 289.01895812 393.578101 285 394 C284.77699219 394.55171875 284.55398438 395.1034375 284.32421875 395.671875 C282.58445903 398.7305676 280.34235518 400.8073812 277.8125 403.25 C273.30611568 407.64960148 269.07289154 412.19241198 265 417 C269.15633936 421.90687712 273.41237879 426.68595803 277.8125 431.375 C278.45123047 432.05691406 279.08996094 432.73882813 279.74804688 433.44140625 C285.40570851 439.44344729 291.2172879 445.28366669 297.10083008 451.06396484 C301.05361809 454.96669342 304.78520126 458.97893548 308.41015625 463.1875 C310.50099282 465.57115643 312.72887685 467.78864325 315 470 C329.21233597 484.08234509 329.21233597 484.08234509 329.30107117 492.05204773 C329.31682693 493.07106674 329.3325827 494.09008575 329.34881592 495.13998413 C329.3592392 496.80838852 329.3592392 496.80838852 329.36987305 498.51049805 C329.38462173 499.68656113 329.39937042 500.86262421 329.41456604 502.07432556 C329.4591236 505.970083 329.48748626 509.86579812 329.51171875 513.76171875 C329.52113125 515.10623544 329.53062575 516.45075156 329.54020119 517.79526711 C329.57868297 523.39104508 329.61189237 528.9868082 329.63057232 534.58269024 C329.65735461 542.58464058 329.71484836 550.58497034 329.81633729 558.58633393 C329.8853611 564.22218289 329.91955431 569.8576027 329.92813712 575.49386436 C329.93412211 578.85554802 329.95486501 582.2155627 330.01270103 585.57678795 C330.06874794 589.33326232 330.0678202 593.08575326 330.0534668 596.8425293 C330.08268219 597.94467773 330.11189758 599.04682617 330.14199829 600.18237305 C330.04986822 606.41873704 329.10966047 609.54822815 324.64118958 614.02546692 C323.1017113 615.35911745 321.55511381 616.68461484 320 618 C318.87059258 619.22724199 317.76104009 620.47360049 316.6875 621.75 C313.57401089 625.38481751 310.32961639 628.87925122 307.0625 632.375 C302.60559694 637.14574014 298.45659188 642.05021879 294.5234375 647.26953125 C294.02070312 647.84058594 293.51796875 648.41164063 293 649 C292.34 649 291.68 649 291 649 C291.20557022 650.14446594 291.41114044 651.28893188 291.62294006 652.46807861 C292.55547792 661.34698763 291.33963086 667.94051934 285.67941284 675.0189209 C280.13316005 681.38548334 273.99024951 687.21251559 267.88833499 693.03814983 C264.80176453 696.00492406 261.76986836 699.02660211 258.73146057 702.0425415 C252.98545237 707.72978753 247.19282794 713.36691364 241.3812781 718.98708367 C234.76085061 725.39420888 228.19510249 731.85619206 221.63309562 738.32305288 C208.1481337 751.61008241 194.59696097 764.82765245 181 778 C177.59834371 776.52798224 175.38122696 774.63042836 172.7696991 772.01693726 C171.93290115 771.1843338 171.09610321 770.35173035 170.23394775 769.49389648 C169.32425232 768.57858154 168.41455688 767.6632666 167.47729492 766.72021484 C166.50327517 765.74726842 165.52882251 764.7747552 164.55397034 763.80264282 C161.9087278 761.16224654 159.26977728 758.51564271 156.63203597 755.86775541 C153.86526724 753.09219052 151.09321494 750.32191172 148.32185364 747.55093384 C143.66387011 742.8920136 139.00977486 738.22923764 134.3581543 733.56396484 C128.99471871 728.1848452 123.62611669 722.81092774 118.25446624 717.44001234 C112.52252518 711.70874951 106.79441071 705.97367371 101.06739259 700.23749208 C99.42459661 698.59257392 97.78109954 696.94835908 96.13744164 695.30430222 C93.5421747 692.70802268 90.94950147 690.10917888 88.35872459 687.50841904 C86.96498694 686.11041617 85.5688599 684.71479663 84.17263794 683.3192749 C80.35391344 679.48128195 76.56830439 675.61758629 72.91938782 671.61709595 C72.36633626 671.01092752 71.8132847 670.4047591 71.24347401 669.78022194 C69.0903783 666.69773836 69.39283759 663.77093688 69.5625 660.125 C69.49426785 651.64081894 66.91094344 647.86829594 61 642 C59.8113345 640.73390923 58.62816684 639.46264428 57.44921875 638.1875 C54.86057819 635.3924398 52.25558229 632.61462075 49.6328125 629.8515625 C46.02007101 626.03717962 42.5041093 622.1498498 39.02734375 618.2109375 C36.95644271 615.82802886 36.95644271 615.82802886 33.92280579 613.61361694 C30.25663234 609.92016852 30.26390535 606.44440856 30.17572021 601.40968323 C30.18629456 600.27498093 30.1968689 599.14027863 30.20776367 597.97119141 C30.19564346 596.76396927 30.18352325 595.55674713 30.17103577 594.3129425 C30.14497635 591.01249769 30.14587283 587.71431777 30.16111541 584.41395235 C30.17028963 581.65313535 30.16054921 578.89251716 30.15077668 576.13171232 C30.12789255 569.61463968 30.13541501 563.09809637 30.1628418 556.58105469 C30.19062772 549.87208625 30.17130609 543.16445352 30.12796611 536.45559752 C30.09211596 530.68289507 30.08366372 524.91060299 30.09735852 519.13780534 C30.1053801 515.69557357 30.10372001 512.25408894 30.07649803 508.81193924 C30.04773001 504.96996733 30.07628062 501.12955173 30.11010742 497.28759766 C30.09436676 496.15694382 30.0786261 495.02628998 30.06240845 493.8613739 C30.18114117 487.01987886 31.33797283 483.39980692 36.26504993 478.55910301 C37.12385022 477.78734702 37.12385022 477.78734702 38 477 C39.19109375 475.77796875 39.19109375 475.77796875 40.40625 474.53125 C41.80208333 473.17708333 43.19791667 471.82291667 44.59375 470.46875 C46.53639564 468.47564604 48.34447892 466.45656258 50.15380859 464.34619141 C53.90897529 460.04156541 57.88321135 456.00556921 61.9453125 451.9921875 C63.04466629 450.89851364 63.04466629 450.89851364 64.16622925 449.78274536 C66.48338137 447.47769373 68.80376365 445.17593821 71.125 442.875 C74.19303984 439.83366641 77.25767499 436.78896014 80.3203125 433.7421875 C81.01625519 433.05454315 81.71219788 432.3668988 82.42922974 431.65841675 C89.42923656 425.59134446 89.42923656 425.59134446 93.0390625 417.859375 C91.75797167 415.56689666 90.29559006 414.04452816 88.375 412.25 C82.79083806 406.87599469 77.77097793 401.10685175 73 395 C69.74472629 395.57319791 68.23008639 396.43080104 66.0390625 398.88671875 C65.4920166 399.48871094 64.9449707 400.09070313 64.38134766 400.7109375 C63.80175293 401.36320312 63.2221582 402.01546875 62.625 402.6875 C61.37707106 404.05787846 60.12701221 405.42631987 58.875 406.79296875 C58.235625 407.49212402 57.59625 408.1912793 56.9375 408.91162109 C53.90520904 412.1800456 50.77793797 415.3483574 47.625 418.5 C46.80636475 419.32504028 46.80636475 419.32504028 45.97119141 420.16674805 C43.09939678 423.02945197 40.15751848 425.75849028 37.0859375 428.40625 C32.84892912 432.07365337 28.92221752 436.00117667 25 440 C21.20083606 443.87336636 17.43100177 447.6795981 13.26171875 451.15625 C9.6098091 454.28569796 6.50017114 457.74222617 3.33203125 461.34375 C-10.72772254 477.1077331 -21.34819015 485.37995246 -42.87353516 488.35253906 C-49.98108326 489.39411613 -56.94246595 491.22511287 -63.92123413 492.9005127 C-68.0766708 493.89052395 -72.24186483 494.83754382 -76.40625 495.7890625 C-82.47333742 497.18138896 -88.5359753 498.59114333 -94.59375 500.0234375 C-107.02275104 502.95957156 -119.41110971 505.83430004 -132 508 C-132.99209733 478.75215126 -132.99209733 478.75215126 -126.25 471.125 C-124.75361215 469.54063295 -123.22203321 468.03096741 -121.62207031 466.55126953 C-119.31200307 464.34203304 -117.29678046 461.91794851 -115.23876953 459.47583008 C-113.62330635 457.56049197 -111.98144395 455.67177885 -110.328125 453.7890625 C-109.50538086 452.85175293 -109.50538086 452.85175293 -108.66601562 451.89550781 C-107.55533854 450.63183594 -106.44466146 449.36816406 -105.33398438 448.10449219 C-99.01749078 440.90843984 -92.875922 433.65120285 -87.02954102 426.06713867 C-83.54234006 421.58613952 -79.80414281 417.41038203 -75.92456055 413.26806641 C-72.39014581 409.47941849 -69.1260477 405.53983221 -65.94921875 401.44921875 C-65.30597656 400.64097656 -64.66273438 399.83273437 -64 399 C-63.62120697 398.45563797 -63.24241394 397.91127594 -62.85214233 397.35041809 C-58.68773025 391.80356277 -54.47846489 390.27529402 -47.90234375 388.5625 C-46.89942291 388.27984283 -45.89650208 387.99718567 -44.8631897 387.70596313 C-41.56055772 386.78088044 -38.24959728 385.89053785 -34.9375 385 C-32.63142051 384.36093652 -30.32600858 383.71945965 -28.02124023 383.07568359 C-23.18233946 381.72724083 -18.34009419 380.39186839 -13.49511719 379.06542969 C-5.96525808 376.9985012 1.54628461 374.86995244 9.0546875 372.7265625 C10.26783127 372.38059021 11.48097504 372.03461792 12.73088074 371.67816162 C15.12748549 370.99467144 17.5240669 370.31109941 19.92062378 369.62744141 C25.52737647 368.02930695 31.13575694 366.43706741 36.74609375 364.8515625 C37.71461273 364.57623688 38.68313171 364.30091125 39.68099976 364.01724243 C40.57574005 363.76485809 41.47048035 363.51247375 42.39233398 363.25244141 C43.55272438 362.92392685 43.55272438 362.92392685 44.73655701 362.58877563 C47.13512752 361.9648501 49.56973736 361.48605253 52 361 C52.66 357.37 53.32 353.74 54 350 C52.23148682 350.28520508 50.46297363 350.57041016 48.64086914 350.86425781 C40.03420923 352.18633965 31.39584733 353.17870149 22.74609375 354.171875 C20.97636983 354.37693742 19.20667133 354.58221921 17.43699646 354.78770447 C12.73811426 355.33267348 8.03889274 355.87465578 3.33956146 356.41573715 C-1.51642583 356.97505547 -6.37221718 357.53607018 -11.22802734 358.09692383 C-17.03790635 358.76794074 -22.84780526 359.43878066 -28.65783691 360.10847473 C-39.80692745 361.39437449 -50.9534188 362.70009112 -62.09765625 364.02734375 C-65.67546961 364.45080415 -69.2533515 364.87367933 -72.83126831 365.29626465 C-75.01574884 365.55574116 -77.19993857 365.81767845 -79.38381958 366.08215332 C-82.34110169 366.44005397 -85.2992702 366.78941621 -88.2578125 367.13671875 C-89.52341759 367.29369484 -89.52341759 367.29369484 -90.81459045 367.45384216 C-96.49857945 368.10870611 -99.96935376 368.08461901 -104.4765625 364.515625 C-105.46825439 363.74134155 -105.46825439 363.74134155 -106.47998047 362.95141602 C-107.54176514 362.10921509 -107.54176514 362.10921509 -108.625 361.25 C-114.62962167 356.57089759 -120.6863698 351.99561619 -126.875 347.5625 C-133.1165415 343.08549063 -139.32383785 338.56682715 -145.5 334 C-151.64001698 329.46229828 -157.80347212 324.96022398 -164 320.5 C-171.10082617 315.38862606 -178.15838362 310.22114969 -185.19335938 305.01953125 C-186.28680664 304.21128906 -186.28680664 304.21128906 -187.40234375 303.38671875 C-188.13759277 302.83048828 -188.8728418 302.27425781 -189.63037109 301.70117188 C-192.0156524 299.93793903 -192.0156524 299.93793903 -194.74853516 298.36132812 C-203.69063886 292.75239933 -206.75028822 285.52461187 -210.5 276.125 C-211.14085839 274.58914902 -211.78478438 273.05457474 -212.43164062 271.52124023 C-213.72181675 268.44956246 -214.99434512 265.37159321 -216.25 262.28564453 C-218.18252444 257.53796237 -220.18827952 252.82287944 -222.20141602 248.10888672 C-223.52883017 244.99486644 -224.84193215 241.87511618 -226.15234375 238.75390625 C-229.41949642 230.98704067 -232.740075 223.24333458 -236.0625 215.5 C-236.69238973 214.03141573 -237.32227248 212.56282846 -237.95214844 211.09423828 C-239.61271721 207.22306527 -241.27384953 203.35213429 -242.93511963 199.48126221 C-244.81504114 195.10088454 -246.69469858 190.72039364 -248.57421875 186.33984375 C-248.96015701 185.4405867 -249.34609528 184.54132965 -249.74372864 183.61482239 C-251.68089396 179.10000325 -253.61535872 174.58406056 -255.54418945 170.06567383 C-256.28977743 168.31978199 -257.03546281 166.57393175 -257.78125 164.828125 C-258.14208176 163.98344162 -258.50291351 163.13875824 -258.87467957 162.26847839 C-260.82011725 157.72411453 -262.78882947 153.19148742 -264.79547119 148.67381287 C-265.6237294 146.8076478 -266.44534607 144.93871501 -267.26464844 143.06860352 C-268.22246608 140.88832467 -269.19352374 138.71379132 -270.18066406 136.54663086 C-270.59026367 135.60698486 -270.99986328 134.66733887 -271.421875 133.69921875 C-271.77862305 132.90346436 -272.13537109 132.10770996 -272.50292969 131.2878418 C-273.17692569 128.18567258 -272.49845345 126.76658753 -271 124 C-269.32348633 121.9987793 -269.32348633 121.9987793 -267.33203125 120.07421875 C-266.60306641 119.35943359 -265.87410156 118.64464844 -265.12304688 117.90820312 C-264.36056641 117.17537109 -263.59808594 116.44253906 -262.8125 115.6875 C-256.7305966 109.78494154 -250.75723333 103.85779837 -245.56225586 97.14111328 C-244.125 95.4375 -244.125 95.4375 -241 93 C-233.21745637 93.14816466 -226.48850989 95.68809274 -219.25 98.375 C-218.01975098 98.82343262 -216.78950195 99.27186523 -215.52197266 99.73388672 C-211.67498882 101.13907243 -207.83642048 102.56625968 -204 104 C-202.85950195 104.42603516 -201.71900391 104.85207031 -200.54394531 105.29101562 C-194.07330094 107.71774314 -187.61459794 110.17500185 -181.16062927 112.64570618 C-175.92755862 114.64828002 -170.68897584 116.63608966 -165.44921875 118.62109375 C-146.45139537 125.82306371 -127.48810457 133.11023455 -108.5625 140.5 C-107.61521027 140.86900421 -106.66792053 141.23800842 -105.69192505 141.61819458 C-104.76822113 141.97823578 -103.84451721 142.33827698 -102.89282227 142.70922852 C-101.98674225 143.06212448 -101.08066223 143.41502045 -100.14712524 143.77861023 C-98.34203186 144.48920758 -96.54093452 145.21004005 -94.74398804 145.94099426 C-90.67543744 147.59460508 -86.67065703 149.13690437 -82.44165039 150.32861328 C-65.12591774 155.65433639 -53.40937514 170.27566173 -41.19946289 182.9286499 C-38.65967086 185.54837523 -36.09496533 188.14295103 -33.52889729 190.73690605 C-30.4653717 193.83467965 -27.41271205 196.94304438 -24.36328125 200.0546875 C-23.78306025 200.64624508 -23.20283924 201.23780266 -22.60503578 201.84728622 C-20.97983737 203.50955863 -19.36223452 205.17882171 -17.74731445 206.85107422 C-17.26287369 207.34560593 -16.77843292 207.84013763 -16.27931213 208.34965515 C-13 211.76943012 -13 211.76943012 -13 214 C-12.34 214 -11.68 214 -11 214 C-9.77427673 215.24572754 -9.77427673 215.24572754 -8.26538086 217.10351562 C-2.4876681 223.89026833 3.93560737 230.05843841 10.24609375 236.34375 C11.6263637 237.72215187 13.0064108 239.10077691 14.38624573 240.47961426 C17.9957807 244.08535473 21.60830999 247.68808033 25.22149658 251.29016113 C28.91707527 254.97545934 32.60977905 258.66363581 36.30273438 262.3515625 C43.53236428 269.57050926 50.76516456 276.78627049 58 284 C60.98852875 282.54518268 63.54976069 280.95476664 66.203125 278.9453125 C67.01136719 278.3359082 67.81960938 277.72650391 68.65234375 277.09863281 C69.50957031 276.44733398 70.36679687 275.79603516 71.25 275.125 C73.04684301 273.7681868 74.84371847 272.41141657 76.640625 271.0546875 C77.53845703 270.3750293 78.43628906 269.69537109 79.36132812 268.99511719 C83.23213102 266.06837762 87.11585586 263.15899548 91 260.25 C92.27090879 259.29697562 93.54174765 258.34385797 94.8125 257.390625 C95.864375 256.60171875 96.91625 255.8128125 98 255 C98.763125 254.39671875 99.52625 253.7934375 100.3125 253.171875 C102 252 102 252 104 252 C100.91234285 248.67616449 97.51696751 246.17330674 93.73828125 243.70703125 C92.85138863 243.11978523 92.85138863 243.11978523 91.94657898 242.52067566 C90.07143275 241.28018811 88.19217844 240.04610673 86.3125 238.8125 C84.42294373 237.56696329 82.53426324 236.32011814 80.64628601 235.07218933 C78.94197299 233.94650641 77.23532382 232.82436288 75.52856445 231.70239258 C73 230 73 230 72 229 C71.85324242 226.96289828 71.77692737 224.92069616 71.7277832 222.87890625 C71.69558182 221.56664062 71.66338043 220.254375 71.63020325 218.90234375 C71.52840169 213.66093843 71.45327954 208.41914882 71.39974689 203.17703247 C71.35886329 199.19996276 71.29874969 195.22537179 71.19067383 191.24951172 C71.08646958 187.40309955 71.03227146 183.55889223 71.01228905 179.71115112 C70.99642644 178.25018275 70.96335177 176.78928857 70.91213417 175.32913208 C70.53225254 163.94650892 70.53225254 163.94650892 74.14257812 159.15853882 C76.65758068 156.86637689 79.19105246 154.91494867 82 153 C83.45003619 151.8732403 84.89629213 150.74156847 86.3359375 149.6015625 C87.67852567 148.60428491 89.0248194 147.61197412 90.375 146.625 C91.05949219 146.11839844 91.74398438 145.61179687 92.44921875 145.08984375 C93.7416516 144.1336944 95.03548208 143.17942975 96.33105469 142.22753906 C98.23009515 140.83076091 100.11756502 139.41906637 102 138 C101.41502639 131.96245203 100.14106725 126.52219815 98.3046875 120.75 C98.03415558 119.89245117 97.76362366 119.03490234 97.4848938 118.15136719 C96.91219788 116.34834215 96.33546089 114.54659617 95.75488281 112.74609375 C94.87935971 110.01360655 94.03325607 107.27307316 93.1875 104.53125 C92.62418876 102.7702588 92.05914069 101.00982205 91.4921875 99.25 C91.24709442 98.44143555 91.00200134 97.63287109 90.7494812 96.79980469 C88.69593437 90.60022332 85.55279486 86.61639144 81 82 C80.22688477 81.20254364 79.45376953 80.40508728 78.65722656 79.58346558 C75.96923024 76.83676995 73.25586787 74.11652147 70.53515625 71.40234375 C69.53284919 70.39936097 68.53069044 69.39622997 67.52867126 68.39295959 C65.44008466 66.30290862 63.34972612 64.21465112 61.25805664 62.12768555 C58.5976959 59.4730213 55.94185158 56.81389116 53.28733158 54.15338802 C51.22233394 52.08475051 49.15492796 50.01853301 47.0868206 47.95300484 C46.10743589 46.97427995 45.12877319 45.99483194 44.15089607 45.01460075 C39.1783149 40.03267395 34.16507441 35.18072542 28.82420349 30.59513855 C25.86803528 28.01017591 23.09118265 25.2535221 20.3125 22.48046875 C19.72452637 21.89582352 19.13655273 21.31117828 18.53076172 20.70881653 C17.30615972 19.48922386 16.0828586 18.26832362 14.86083984 17.04614258 C12.98162361 15.16914531 11.09450377 13.30033111 9.20703125 11.43164062 C8.01253356 10.2400716 6.81850536 9.04803171 5.625 7.85546875 C5.05950439 7.29715866 4.49400879 6.73884857 3.91137695 6.16362 C0 2.22886447 0 2.22886447 0 0 Z " fill="#000000" transform="translate(332,123)"/>
<path d="M0 0 C3.13404516 1.83257908 5.79362519 4.03324646 8.49609375 6.43359375 C14.10506941 11.30830058 19.86944344 15.90089401 25.78125 20.40234375 C26.61644165 21.11463135 26.61644165 21.11463135 27.46850586 21.84130859 C29.64454722 23.63925006 29.64454722 23.63925006 32.63500977 25.32666016 C37.36099325 28.43258371 40.88016051 31.55047166 42.18930054 37.23449707 C43.11259979 45.43222381 42.69408656 53.64732301 42.37109375 61.87109375 C42.31939175 64.36056934 42.27312108 66.85016397 42.23242188 69.33984375 C42.05349837 78.43576954 41.7231651 87.51482523 41.1496582 96.5949707 C41.08446487 97.6463472 41.01927155 98.69772369 40.95210266 99.78096008 C40.3791619 103.73413803 38.81523468 105.60971175 35.93359375 108.30859375 C34.93525811 109.28810555 33.937919 110.26863373 32.94140625 111.25 C32.40032227 111.76320801 31.85923828 112.27641602 31.30175781 112.80517578 C28.01114626 115.99716116 24.9298455 119.38987136 21.80859375 122.74609375 C21.1954834 123.39553955 20.58237305 124.04498535 19.95068359 124.71411133 C16.93887347 127.90630577 13.9827009 131.13103758 11.10546875 134.4453125 C7.3634343 138.75232077 3.47651125 142.91175578 -0.44140625 147.05859375 C-1.45074219 148.13270508 -1.45074219 148.13270508 -2.48046875 149.22851562 C-6.21340996 153.18846002 -9.99458249 157.07884792 -13.8984375 160.87084961 C-15.53436409 162.44742354 -15.53436409 162.44742354 -16.52931213 164.55639648 C-19.44336653 167.51251841 -22.64969462 167.12621385 -26.57788086 167.15649414 C-27.40760406 167.17796005 -28.23732727 167.19942596 -29.0921936 167.22154236 C-31.84281834 167.28515364 -34.5925307 167.31721753 -37.34375 167.34375 C-38.75690585 167.36258649 -38.75690585 167.36258649 -40.19861031 167.38180351 C-45.19208542 167.4476748 -50.18510214 167.48963134 -55.17895508 167.51196289 C-60.31516743 167.53937787 -65.44647127 167.64562561 -70.58109188 167.77105045 C-74.54746986 167.8535331 -78.51269789 167.87709278 -82.47986031 167.885252 C-84.3709615 167.89911753 -86.26204233 167.93456359 -88.15229607 167.99284554 C-103.66117315 168.43799681 -103.66117315 168.43799681 -109.16091919 163.71749878 C-111.78934525 161.06755413 -114.03445809 158.21202962 -116.19706917 155.17558098 C-118.23985686 152.41842145 -120.58916193 149.99240846 -122.94140625 147.49609375 C-123.85439237 146.50270404 -124.7660286 145.50807053 -125.67578125 144.51171875 C-143.51056181 124.8205207 -143.51056181 124.8205207 -162.12109375 105.87890625 C-164.93555751 102.93121343 -164.64199237 100.15969562 -164.77709961 96.21728516 C-164.79973373 95.57302582 -164.82236786 94.92876648 -164.84568787 94.26498413 C-165.04348134 88.29661919 -165.15851436 82.32614542 -165.24890804 76.35527992 C-165.31054241 72.34924805 -165.39867767 68.34787993 -165.55249023 64.34423828 C-166.60262064 36.31892186 -166.60262064 36.31892186 -161.5065918 29.85083008 C-158.72935378 27.16527851 -155.74563141 25.24720409 -152.30804443 23.51173401 C-149.02933693 21.727785 -146.25615921 19.29161228 -143.37890625 16.93359375 C-142.2252021 16.03837606 -141.06925751 15.14603108 -139.91015625 14.2578125 C-137.48039606 12.35784448 -135.14861101 10.38210228 -132.84765625 8.328125 C-132.26508057 7.81258057 -131.68250488 7.29703613 -131.08227539 6.76586914 C-129.97350537 5.77660536 -128.87560403 4.77497811 -127.79077148 3.75952148 C-125.45591529 1.68447138 -124.10698906 0.4888927 -120.9140625 0.5234375 C-118.13023148 1.61849899 -115.55854254 2.85667123 -112.94140625 4.30859375 C-112.02359375 4.81003906 -111.10578125 5.31148438 -110.16015625 5.828125 C-107.44140625 7.49609375 -107.44140625 7.49609375 -105.23031616 9.57096863 C-101.63518996 12.05260769 -99.44491329 11.98566814 -95.10009766 11.96606445 C-94.01859184 11.96935005 -94.01859184 11.96935005 -92.91523743 11.97270203 C-90.54067518 11.97500634 -88.16736499 11.94878969 -85.79296875 11.921875 C-84.1353698 11.91694744 -82.47776527 11.91365094 -80.82015991 11.91191101 C-77.3483498 11.90427776 -73.87695292 11.88374295 -70.40527344 11.8527832 C-65.96801869 11.81327097 -61.53103279 11.79518192 -57.09362221 11.78547382 C-52.84753509 11.77546688 -48.6015124 11.75561365 -44.35546875 11.734375 C-43.55123096 11.73097925 -42.74699318 11.7275835 -41.91838455 11.72408485 C-39.62601473 11.71242203 -37.33380706 11.69388659 -35.04150391 11.6730957 C-33.08889145 11.65832939 -33.08889145 11.65832939 -31.09683228 11.64326477 C-24.16736447 11.36427763 -19.66325474 10.43061556 -13.81640625 6.62109375 C-12.18832031 5.57308594 -12.18832031 5.57308594 -10.52734375 4.50390625 C-8.605623 3.25357149 -6.70890912 1.96276502 -4.85546875 0.61328125 C-2.44140625 -0.50390625 -2.44140625 -0.50390625 0 0 Z " fill="#FEFEFE" transform="translate(573.44140625,386.50390625)"/>
<path d="M0 0 C-1.52471567 4.8652724 -3.43676064 9.46085005 -5.5 14.11328125 C-5.84775482 14.90331543 -6.19550964 15.69334961 -6.55380249 16.50732422 C-7.30622175 18.2157456 -8.0598765 19.92362328 -8.81463623 21.63101196 C-10.01896873 24.35541039 -11.22009011 27.08120463 -12.42041016 29.80737305 C-14.1009658 33.62343554 -15.78281972 37.43892143 -17.46582031 41.25390625 C-21.44297908 50.2701697 -25.41073293 59.29056197 -29.375 68.3125 C-29.9377211 69.59264481 -29.9377211 69.59264481 -30.5118103 70.89865112 C-35.81176219 82.95920093 -41.05896768 95.04049859 -46.21044922 107.1652832 C-47.46499733 110.1140094 -48.72856321 113.05851923 -50 116 C-50.44907715 117.04188477 -50.8981543 118.08376953 -51.36083984 119.15722656 C-51.80250488 120.15979492 -52.24416992 121.16236328 -52.69921875 122.1953125 C-53.09326904 123.09523926 -53.48731934 123.99516602 -53.89331055 124.92236328 C-55 127 -55 127 -57 128 C-58.38650812 128.1782808 -59.77987738 128.30471372 -61.17428589 128.40377808 C-62.05056641 128.46813049 -62.92684692 128.53248291 -63.8296814 128.5987854 C-65.276931 128.69853165 -65.276931 128.69853165 -66.75341797 128.80029297 C-67.76877625 128.87364868 -68.78413452 128.94700439 -69.83026123 129.02258301 C-73.21730257 129.26635567 -76.60473665 129.50417883 -79.9921875 129.7421875 C-82.36934435 129.91250413 -84.74646997 130.08325713 -87.12356567 130.25442505 C-93.42571109 130.70731535 -99.72818365 131.15547036 -106.03076172 131.60229492 C-115.97268039 132.30756122 -125.91422527 133.01805519 -135.85556793 133.73139191 C-138.27964981 133.90523189 -140.70375773 134.07870916 -143.12789154 134.25182343 C-154.81693716 135.08749165 -166.50385931 135.93279737 -178.18066406 136.92675781 C-179.02249552 136.99838449 -179.86432697 137.07001118 -180.73166847 137.14380836 C-184.50651962 137.4673068 -188.28044215 137.79880881 -192.05343628 138.14328003 C-199.72846783 138.82179844 -207.29493708 139.16089459 -215 139 C-210.57936177 133.70222703 -205.90961831 128.78999494 -201.00390625 123.94140625 C-200.25213608 123.1934227 -199.50036591 122.44543915 -198.72581482 121.67478943 C-195.53837759 118.50355905 -192.34499663 115.33833911 -189.15209961 112.17260742 C-186.80893387 109.84764475 -184.46886607 107.51959481 -182.12890625 105.19140625 C-181.4182753 104.48907364 -180.70764435 103.78674103 -179.97547913 103.06312561 C-176.01076533 99.11764761 -172.24400725 95.07927876 -168.63609314 90.80381775 C-166.87659156 88.8639403 -164.99926222 87.18934479 -163 85.5 C-160.28073281 83.19305932 -157.88114826 80.83455201 -155.5625 78.125 C-154.37824523 76.74720397 -153.19029686 75.37257955 -152 74 C-151.39720215 73.29641357 -150.7944043 72.59282715 -150.17333984 71.86791992 C-144.03175741 65.19540975 -137.28534394 61.76237809 -129.0625 58.1875 C-127.71767556 57.58438554 -126.37377739 56.97920189 -125.03076172 56.37207031 C-122.30963419 55.14461577 -119.58434867 53.92727702 -116.85498047 52.71826172 C-112.42510864 50.75135979 -108.03260156 48.70718406 -103.64086914 46.65673828 C-88.09815759 39.40691201 -72.43438518 32.41912444 -56.7890625 25.39453125 C-55.59318764 24.85736229 -55.59318764 24.85736229 -54.37315369 24.30934143 C-50.12655596 22.40216981 -45.87853936 20.49824197 -41.62866211 18.59838867 C-39.85790055 17.80519722 -38.08714833 17.01198493 -36.31640625 16.21875 C-35.51115509 15.8596907 -34.70590393 15.50063141 -33.87625122 15.13069153 C-27.95111824 12.47360872 -22.13802469 9.62588261 -16.34625244 6.69120789 C-3.13408451 0 -3.13408451 0 0 0 Z " fill="#FEFEFE" transform="translate(936,269)"/>
<path d="M0 0 C7.11503827 2.18135947 13.58680645 5.07996725 20.25 8.375 C29.36564536 12.81876712 38.5409383 17.07941592 47.8125 21.1875 C70.37591024 31.21415736 92.63628038 41.90101006 114.875 52.625 C116.00164062 53.16825928 117.12828125 53.71151855 118.2890625 54.27124023 C120.44666491 55.31536108 122.60065026 56.36699339 124.75073242 57.42651367 C126.99081925 58.51129537 129.25051754 59.55618017 131.5246582 60.56762695 C140.48188776 64.68806248 146.69971099 69.79457551 153.4375 76.9375 C154.37271176 77.89938098 155.30956056 78.85967304 156.24804688 79.81835938 C160.12942917 83.82112107 163.92984202 87.87098017 167.56640625 92.09765625 C171.63126144 96.81106272 176.06639753 101.13643865 180.5 105.5 C185.61929376 110.53842024 190.59684823 115.59790034 195.27587891 121.04882812 C198.34140301 124.51805337 201.64422523 127.74873953 204.9375 131 C205.96327148 132.01900391 205.96327148 132.01900391 207.00976562 133.05859375 C208.67087159 134.70808359 210.33428513 136.3551668 212 138 C208.93368379 138.92642953 206.47526625 139.03463386 203.2925415 138.7540741 C202.34883194 138.67419754 201.40512238 138.59432098 200.43281555 138.51202393 C199.40343369 138.41806335 198.37405182 138.32410278 197.31347656 138.22729492 C195.67795082 138.08602928 195.67795082 138.08602928 194.00938416 137.94190979 C190.38590547 137.62751265 186.76331298 137.30383886 183.140625 136.98046875 C180.59989341 136.75893632 178.0591004 136.53810727 175.51824951 136.31794739 C168.79627193 135.73410777 162.07496294 135.14297489 155.3538208 134.54962158 C144.71675564 133.61061933 134.07902958 132.67917657 123.44075012 131.75403214 C120.86939867 131.53031457 118.29809914 131.30599939 115.72685242 131.08108139 C99.74668923 129.68593109 83.77386354 128.37438493 67.74884033 127.62260437 C66.63386169 127.56578995 65.51888306 127.50897552 64.37011719 127.45043945 C62.97366974 127.38999199 62.97366974 127.38999199 61.54901123 127.32832336 C58.72070157 126.96402519 56.54831052 126.27671287 54 125 C52.38525391 122.39086914 52.38525391 122.39086914 50.9765625 119.03515625 C50.58318947 118.11896515 50.58318947 118.11896515 50.18186951 117.18426514 C49.31311182 115.15023882 48.46945001 113.10672406 47.625 111.0625 C47.00747433 109.60499301 46.38821615 108.14821899 45.76733398 106.69213867 C44.47009823 103.64289733 43.18253494 100.58984345 41.90283203 97.53320312 C40.14218259 93.33082998 38.35666878 89.13960333 36.55859375 84.953125 C36.27412888 84.29075333 35.989664 83.62838165 35.69657898 82.94593811 C35.11389242 81.58942188 34.53112293 80.23294127 33.94827271 78.87649536 C33.05321129 76.7908558 32.16086849 74.70407276 31.26928711 72.61694336 C24.11702356 55.88190409 16.85024872 39.19637161 9.59204102 22.50708008 C9.10448334 21.38532883 8.61692566 20.26357758 8.11459351 19.10783386 C7.19379207 16.98939892 6.27237702 14.87123056 5.35025024 12.75337219 C4.93778046 11.80431503 4.52531067 10.85525787 4.1003418 9.87744141 C3.74143356 9.05257233 3.38252533 8.22770325 3.01274109 7.37783813 C1.97125702 4.9325137 0.97801645 2.47131546 0 0 Z " fill="#FEFEFE" transform="translate(90,271)"/>
<path d="M0 0 C3.3112162 0.02015185 6.60956706 -0.06076802 9.91943359 -0.1496582 C21.01566291 -0.25530223 29.36833634 0.17680673 37.80206299 7.89900208 C38.76451292 8.84505506 39.71449187 9.80399334 40.65042114 10.77629089 C43.07450688 13.2042847 45.76866063 15.26375129 48.45458984 17.39526367 C49.99743545 18.66466546 51.53959213 19.93490842 53.07958984 21.20776367 C51.19071893 28.42831476 49.0559888 35.50490746 46.61083984 42.55541992 C46.28925903 43.49276474 45.96767822 44.43010956 45.63635254 45.39585876 C44.62068547 48.35512451 43.60050495 51.31280477 42.57958984 54.27026367 C41.55921702 57.23147365 40.5399005 60.19303532 39.52282715 63.15538025 C38.89376329 64.98710616 38.26279698 66.81818034 37.6295166 68.64845276 C36.15827501 72.92766067 34.72503731 77.21847249 33.36279297 81.53369141 C33.11565552 82.31163559 32.86851807 83.08957977 32.6138916 83.89109802 C32.02841588 86.42964758 31.90048234 88.61087508 32.07958984 91.20776367 C33.32807042 93.19694865 33.32807042 93.19694865 35.14208984 94.90698242 C35.77373047 95.55860352 36.40537109 96.21022461 37.05615234 96.8815918 C37.72388672 97.54610352 38.39162109 98.21061523 39.07958984 98.89526367 C40.39623085 100.22842623 41.7089528 101.56547453 43.01708984 102.90698242 C43.60361328 103.49310303 44.19013672 104.07922363 44.79443359 104.68310547 C46.07958984 106.20776367 46.07958984 106.20776367 46.07958984 108.20776367 C46.63195312 108.02189697 47.18431641 107.83603027 47.75341797 107.64453125 C78.99122226 97.14673973 78.99122226 97.14673973 91.07958984 94.20776367 C91.45068359 96.43823242 91.45068359 96.43823242 91.07958984 99.20776367 C89.108159 100.94198169 87.36638208 102.17896736 85.14208984 103.52026367 C84.49256348 103.93195801 83.84303711 104.34365234 83.17382812 104.76782227 C81.6798443 105.71359259 80.18108282 106.65184023 78.67871094 107.58422852 C75.75969517 109.40758516 72.86621033 111.2677821 69.97412109 113.13354492 C58.62132228 120.44983088 58.62132228 120.44983088 54.18212891 123.21264648 C52.09612902 124.5540685 50.05499632 125.96766777 48.06298828 127.44506836 C38.6267136 134.11733188 30.71520971 134.36022102 19.57958984 134.20776367 C17.85082878 134.2071698 16.12206462 134.20940318 14.39331055 134.21435547 C11.78097358 134.21942779 9.16924849 134.21953484 6.55696106 134.20158386 C1.25528957 134.1689383 -3.99362486 134.32771629 -9.28369141 134.66479492 C-24.81855279 135.51054091 -33.97788895 133.9066349 -45.94238281 123.80639648 C-49.07048203 121.27828075 -52.47386372 119.26747135 -55.92041016 117.20776367 C-61.98230145 113.47636687 -67.93604122 109.59474168 -73.85791016 105.64526367 C-74.64617187 105.1199707 -75.43443359 104.59467773 -76.24658203 104.0534668 C-81.78501449 100.34315934 -81.78501449 100.34315934 -82.92041016 99.20776367 C-82.96121799 97.20818003 -82.96295372 95.20731113 -82.92041016 93.20776367 C-73.68313373 95.53405249 -64.87358009 98.69681197 -55.97314453 102.06713867 C-47.65942657 105.25809852 -47.65942657 105.25809852 -38.92041016 106.20776367 C-35.98495066 104.21856809 -35.98495066 104.21856809 -33.73291016 101.20776367 C-32.89888672 100.18553711 -32.06486328 99.16331055 -31.20556641 98.11010742 C-30.45146484 97.15233398 -29.69736328 96.19456055 -28.92041016 95.20776367 C-28.32099609 94.59030273 -27.72158203 93.9728418 -27.10400391 93.33666992 C-24.93718422 90.96910944 -23.89296655 88.9850224 -24.00683594 85.76000977 C-25.45514573 77.25575682 -28.07848465 69.33865967 -31.04541016 61.27026367 C-31.53747048 59.905498 -32.02867226 58.5404225 -32.51904297 57.17504883 C-34.75265448 50.98335442 -37.04989344 44.82175208 -39.45947266 38.69604492 C-40.02384033 37.25636353 -40.02384033 37.25636353 -40.59960938 35.78759766 C-41.29411939 34.03327106 -42.00078167 32.28368811 -42.72167969 30.54003906 C-43.97658902 27.39291558 -44.90291088 24.85707896 -44.99462891 21.45385742 C-43.42371521 18.16921969 -40.88461096 16.43866845 -37.98291016 14.39526367 C-36.88934498 13.59861801 -35.79693387 12.80038619 -34.70556641 12.00073242 C-33.78880127 11.36687622 -33.78880127 11.36687622 -32.85351562 10.72021484 C-30.8295471 9.23198974 -30.8295471 9.23198974 -29.10058594 7.14257812 C-21.11944571 -1.13741537 -10.74996933 -0.10554746 0 0 Z " fill="#FEFEFE" transform="translate(507.92041015625,244.792236328125)"/>
<path d="M0 0 C8.41222292 2.01734086 16.382036 4.93865824 24.41000366 8.12176514 C26.70666983 9.03238167 29.0059231 9.93617986 31.3059082 10.83837891 C33.82349905 11.82601047 36.34091324 12.81407045 38.8575592 13.80410767 C48.57972259 17.62784424 58.32333154 21.39596978 68.06616211 25.16665649 C84.9273732 31.69402893 101.78032789 38.24257069 118.625 44.8125 C119.45800629 45.13716248 120.29101257 45.46182495 121.14926147 45.79632568 C121.95618439 46.11087708 122.7631073 46.42542847 123.59448242 46.74951172 C124.3796373 47.0554425 125.16479218 47.36137329 125.97373962 47.67657471 C127.49893546 48.27303517 129.02294836 48.87253074 130.54566956 49.47528076 C134.05259056 50.86267686 137.56216675 52.21103599 141.12011719 53.46240234 C142.10955826 53.82382576 142.10955826 53.82382576 143.11898804 54.19255066 C144.86988867 54.8307505 146.62871761 55.44708754 148.38818359 56.0612793 C158.45822255 60.70791917 166.83934009 71.65448928 174.68579102 79.42944336 C175.92687536 80.65604247 177.16809531 81.88250438 178.40943909 83.10884094 C189.64768312 94.21782433 200.85487913 105.35831651 212.05458164 116.50614071 C220.32048926 124.73304069 228.60088043 132.94478046 236.90057999 141.1375913 C242.75421396 146.91837525 248.59054705 152.71627447 254.41446251 158.52699572 C257.88688456 161.99056494 261.36654081 165.44605619 264.86523628 168.88310051 C268.15102983 172.11162496 271.4148705 175.36082337 274.66324425 178.62698174 C275.85631482 179.81917492 277.05708257 181.00372383 278.26607513 182.17976761 C288.52194353 192.1704923 288.52194353 192.1704923 289.22007751 198.78492737 C289.1862936 201.25402164 289.1862936 201.25402164 289 203 C285.01039652 201.48901211 281.28889167 199.64481461 277.5 197.6875 C268.3451254 193.02550139 258.95291134 188.89042476 249.55664062 184.74487305 C226.55974861 174.55675131 226.55974861 174.55675131 222.1875 169.0625 C221.47207031 168.20011719 220.75664062 167.33773437 220.01953125 166.44921875 C219.35308594 165.64097656 218.68664062 164.83273437 218 164 C216.80926709 162.77431895 215.60223112 161.56413526 214.375 160.375 C211.32339985 157.37965054 208.53981519 154.20692834 205.75 150.96875 C204.06201714 149.06976929 202.31230266 147.27994012 200.5 145.5 C197.40643357 142.46167583 194.57894493 139.2523468 191.75 135.96875 C189.54997467 133.4937215 187.20602021 131.192703 184.84326172 128.87451172 C183.06772873 127.06887698 181.4081523 125.20912679 179.7578125 123.2890625 C175.39366564 118.27017834 170.84032566 113.44150181 166.23339844 108.64550781 C163.01571424 105.27965035 159.88403899 101.94393889 157.0546875 98.2421875 C148.4488599 87.29440154 136.84034228 82.60310999 124.33679199 77.29269409 C118.63593891 74.86991701 113.06725044 72.21240187 107.5 69.5 C98.04837884 64.94964757 88.54426518 60.51779944 79.02416992 56.11279297 C72.76318998 53.21462333 66.50800933 50.30522082 60.265625 47.3671875 C59.61441681 47.0607431 58.96320862 46.75429871 58.29226685 46.43856812 C57.63717133 46.13029083 56.98207581 45.82201355 56.30712891 45.50439453 C37.53470299 36.67088599 18.65782889 28.0767454 -0.24755859 19.53222656 C-1.70863037 18.8704541 -1.70863037 18.8704541 -3.19921875 18.1953125 C-4.45545044 17.62707764 -4.45545044 17.62707764 -5.73706055 17.04736328 C-7.84660445 16.07099654 -9.92729483 15.05198048 -12 14 C-8 9.33333333 -4 4.66666667 0 0 Z " fill="#FEFEFE" transform="translate(97,238)"/>
<path d="M0 0 C3.95374187 3.33116615 7.81041857 6.68428556 11.4375 10.375 C12.11683594 11.06335938 12.79617188 11.75171875 13.49609375 12.4609375 C13.99238281 12.96882812 14.48867188 13.47671875 15 14 C12.4049699 16.06390692 10.0215761 17.55985018 6.94140625 18.77734375 C5.68638306 19.28394531 5.68638306 19.28394531 4.40600586 19.80078125 C3.46764893 20.17589844 2.52929199 20.55101562 1.5625 20.9375 C-30.99148479 34.2476867 -62.92318659 49.12755825 -94.79827881 63.97467041 C-96.96099619 64.98183614 -99.12421122 65.98792466 -101.28759766 66.99365234 C-101.97661667 67.31405991 -102.66563568 67.63446747 -103.37553406 67.96458435 C-104.72947779 68.59418104 -106.08349054 69.22362935 -107.43757629 69.85292053 C-110.61391135 71.33035932 -113.78704628 72.81395578 -116.95336914 74.31274414 C-122.0989274 76.74335038 -127.23138102 79.13173116 -132.5078125 81.265625 C-144.52425408 86.23640874 -151.89462484 93.18756586 -160.29296875 103.03808594 C-163.24116397 106.42648651 -166.46974019 109.50182122 -169.69140625 112.62890625 C-171.62803148 114.61796126 -173.43659171 116.64368856 -175.24609375 118.74609375 C-179.79112182 123.98369753 -184.73900072 128.78839248 -189.68359375 133.64453125 C-193.77305361 137.68962084 -197.67927408 141.81780107 -201.43164062 146.17773438 C-203.99077991 149.15118015 -206.63579473 152.04625413 -209.32023621 154.90689087 C-212.02269195 157.79673334 -214.61996717 160.73111211 -217.12231445 163.79638672 C-226.66310028 175.15242259 -236.4874043 180.39798314 -250.1875 185.625 C-252.04263018 186.3644518 -253.89615947 187.10793282 -255.74804688 187.85546875 C-258.42665593 188.93659571 -261.10586838 190.01459944 -263.79342651 191.07330322 C-269.66445038 193.39618443 -275.25431994 195.97932441 -280.8137207 198.98193359 C-283 200 -283 200 -286 200 C-286.95340246 192.44726493 -286.95340246 192.44726493 -284.53515625 188.77636719 C-282.44668731 186.52350886 -280.27369587 184.44062054 -278 182.375 C-277.25621094 181.6634375 -276.51242187 180.951875 -275.74609375 180.21875 C-272.24610771 176.895285 -268.6570592 173.68864747 -265.00390625 170.53515625 C-260.44714073 166.57746043 -256.19286871 162.33952453 -251.9375 158.0625 C-251.17373047 157.30259766 -250.40996094 156.54269531 -249.62304688 155.75976562 C-245.43395144 151.56350322 -241.40452229 147.28790611 -237.55273438 142.77929688 C-233.80106779 138.4802173 -229.71212206 134.57564712 -225.375 130.875 C-217.13150625 123.75634945 -209.43002906 115.86810952 -202.359375 107.58984375 C-200.66672438 105.61022076 -198.94787329 103.73144292 -197 102 C-196.34 102 -195.68 102 -195 102 C-194.7400827 101.41869324 -194.48016541 100.83738647 -194.21237183 100.23846436 C-192.91258312 97.83859773 -191.48039277 96.16064027 -189.60205078 94.18457031 C-188.55792526 93.08257294 -188.55792526 93.08257294 -187.4927063 91.95831299 C-184.2452359 88.59380925 -180.98809242 85.2393949 -177.71240234 81.90234375 C-176.00671434 80.15384456 -174.3136147 78.39296334 -172.63427734 76.61914062 C-161.86635883 65.25217537 -152.57476705 57.55152851 -137.57165527 52.83789062 C-133.0805978 51.37462493 -128.71981047 49.57995924 -124.33203125 47.8359375 C-122.4600967 47.1079995 -120.58735721 46.38212843 -118.71386719 45.65820312 C-117.27497131 45.10144897 -117.27497131 45.10144897 -115.80700684 44.53344727 C-114.81881958 44.15115967 -113.83063232 43.76887207 -112.8125 43.375 C-110.70603668 42.55929129 -108.59959187 41.74353479 -106.49316406 40.92773438 C-100.85044849 38.74293849 -95.20701153 36.56001243 -89.56329346 34.37780762 C-85.92214426 32.96989576 -82.28113802 31.5616146 -78.64013672 30.15332031 C-24.00734115 9.02401239 -24.00734115 9.02401239 0 0 Z " fill="#FEFEFE" transform="translate(925,238)"/>
<path d="M0 0 C0 14.52 0 29.04 0 44 C-35.20725318 45.05306669 -70.37920421 45.12376351 -105.59708571 45.07202661 C-113.51559734 45.06060681 -121.43411011 45.0552906 -129.35262799 45.05032361 C-145.56842833 45.04002358 -161.78421198 45.0225729 -178 45 C-178.02527124 38.75204325 -178.04283344 32.50409959 -178.05493164 26.25610352 C-178.05997298 24.12881986 -178.06680591 22.00153969 -178.07543945 19.87426758 C-178.08751379 16.82372174 -178.09323014 13.77322155 -178.09765625 10.72265625 C-178.10281754 9.76537125 -178.10797882 8.80808624 -178.11329651 7.8217926 C-178.11337204 6.94095505 -178.11344757 6.06011749 -178.11352539 5.15258789 C-178.115746 4.37315323 -178.11796661 3.59371857 -178.12025452 2.79066467 C-178 1 -178 1 -177 0 C-174.75193716 -0.11156201 -172.50031548 -0.15139132 -170.24952698 -0.16494751 C-169.53546202 -0.17059105 -168.82139706 -0.1762346 -168.08569378 -0.18204916 C-165.67505607 -0.19985412 -163.26443875 -0.2104943 -160.85375977 -0.22119141 C-159.13273855 -0.23240006 -157.41172005 -0.24403199 -155.69070435 -0.25605774 C-151.00278195 -0.2874687 -146.31484495 -0.3125463 -141.62687802 -0.3362546 C-136.73104709 -0.36178538 -131.83524565 -0.39213579 -126.93943787 -0.42172241 C-118.71509484 -0.47060871 -110.49073657 -0.51527845 -102.26635742 -0.55761719 C-92.74659827 -0.60668899 -83.22690205 -0.66298755 -73.70720631 -0.72303832 C-65.54758151 -0.77431754 -57.38794082 -0.82166987 -49.22827381 -0.86572587 C-44.34889392 -0.89207719 -39.46953235 -0.91981722 -34.59018135 -0.9510994 C-30.00286143 -0.98029295 -25.41554167 -1.00457224 -20.82817459 -1.02499962 C-19.14065668 -1.03332835 -17.45314635 -1.04339465 -15.7656498 -1.05528831 C-13.46957952 -1.07119361 -11.17356577 -1.08092283 -8.87745667 -1.08901978 C-6.94640501 -1.09951575 -6.94640501 -1.09951575 -4.9763422 -1.11022377 C-2 -1 -2 -1 0 0 Z " fill="#FEFEFE" transform="translate(601,665)"/>
<path d="M0 0 C1.07277191 -0.04103348 2.14554382 -0.08206696 3.25082397 -0.12434387 C6.79367504 -0.24744122 10.33501193 -0.32261871 13.87939453 -0.38696289 C15.7095278 -0.42551486 15.7095278 -0.42551486 17.57663345 -0.46484566 C24.05034867 -0.59577825 30.52331775 -0.68664975 36.99804688 -0.74804688 C42.31291429 -0.80039802 47.61780751 -0.93686732 52.9296875 -1.13769531 C101.19899475 -2.92531114 101.19899475 -2.92531114 113.96155739 8.19191265 C118.67980639 12.73520505 122.53354894 17.84665288 126.1552124 23.28520203 C127.99128613 25.87227474 129.71207069 27.66618858 132.17382812 29.63549805 C135.13720703 32.07788086 135.13720703 32.07788086 135.85595703 35.90991211 C135.78376953 37.2234668 135.71158203 38.53702148 135.63720703 39.89038086 C135.61400391 40.57036133 135.59080078 41.2503418 135.56689453 41.95092773 C135.35137869 46.8637092 135.35137869 46.8637092 134.13720703 48.07788086 C132.58976761 48.17597256 131.03784985 48.2041997 129.48730469 48.2048645 C128.47973114 48.20768433 127.47215759 48.21050415 126.43405151 48.21340942 C125.31773346 48.21138519 124.20141541 48.20936096 123.05126953 48.20727539 C121.29642746 48.20990387 121.29642746 48.20990387 119.50613403 48.21258545 C116.2715877 48.21625312 113.03708179 48.21535811 109.80253601 48.21220636 C106.37144896 48.20966204 102.94036451 48.21202863 99.50927734 48.21359253 C93.69481937 48.21541994 87.88037402 48.21300525 82.06591797 48.20825195 C76.19937298 48.20350927 70.33285345 48.20333898 64.46630859 48.20825195 C28.6784879 48.23753825 -7.08433819 48.01341281 -42.86279297 47.07788086 C-43.76202447 32.16534491 -43.76202447 32.16534491 -40.67895508 28.17529297 C-39.23069763 26.72068787 -39.23069763 26.72068787 -37.64013672 25.35522461 C-37.10183731 24.83577774 -36.5635379 24.31633087 -36.00892639 23.78114319 C-34.30500659 22.15348273 -32.55659245 20.58616772 -30.80029297 19.01538086 C-29.6517341 17.93366847 -28.50651925 16.84839395 -27.36474609 15.75952148 C-24.78080843 13.31526742 -22.18674594 10.88819653 -19.50128365 8.55534458 C-17.85270485 7.10933865 -17.85270485 7.10933865 -16.41171932 5.53588867 C-11.36108652 0.48956685 -6.93933647 0.12266821 0 0 Z " fill="#FEFEFE" transform="translate(465.86279296875,593.922119140625)"/>
<path d="M0 0 C1.73423499 19.15929456 1.73423499 19.15929456 -1.98046875 24.5625 C-4.51722573 27.2642805 -7.15413993 29.62982875 -10 32 C-11.38397794 33.51496156 -12.74212075 35.05429885 -14.0625 36.625 C-16.92307692 39.92307692 -16.92307692 39.92307692 -18 41 C-20.8269372 41.12546875 -23.63058389 41.18613386 -26.45898438 41.20532227 C-27.79419128 41.22017166 -27.79419128 41.22017166 -29.15637207 41.23532104 C-32.13547038 41.26717563 -35.11458319 41.29185577 -38.09375 41.31640625 C-40.19128788 41.3370239 -42.28882206 41.35802146 -44.38635254 41.37937927 C-48.82199881 41.42351609 -53.25765917 41.46435651 -57.69335938 41.50268555 C-62.15953988 41.54132475 -66.62567497 41.58277817 -71.09179688 41.62768555 C-72.16896973 41.63850977 -73.24614258 41.64933399 -74.35595703 41.66048622 C-76.52555512 41.68240825 -78.69515149 41.70450181 -80.86474609 41.72676659 C-86.26595247 41.78053486 -91.66693199 41.82432819 -97.06835938 41.84805298 C-106.41264638 41.89233117 -115.74412695 41.9577723 -125.08278656 42.30718708 C-128.86539542 42.44439918 -132.64850229 42.5412046 -136.43244934 42.63316154 C-138.17976279 42.68679112 -139.92660493 42.76010999 -141.67216492 42.85498238 C-154.86874532 43.56568607 -154.86874532 43.56568607 -160.18701172 39.65872192 C-162.72997588 36.89221984 -164.87116529 34.09112806 -167 31 C-168.29368878 29.4837462 -169.60246048 27.9799749 -170.9375 26.5 C-171.72447266 25.58734375 -171.72447266 25.58734375 -172.52734375 24.65625 C-173.94752266 22.98200804 -173.94752266 22.98200804 -175.57373047 21.66088867 C-177.38212161 19.55501998 -177.35130061 18.51112858 -177.29296875 15.76953125 C-177.28330078 14.96708984 -177.27363281 14.16464844 -177.26367188 13.33789062 C-177.23853516 12.50451172 -177.21339844 11.67113281 -177.1875 10.8125 C-177.17396484 9.96751953 -177.16042969 9.12253906 -177.14648438 8.25195312 C-177.11115799 6.16769616 -177.05735139 4.08376723 -177 2 C-176.44771194 1.99576806 -175.89542387 1.99153612 -175.3263998 1.98717594 C-161.57922359 1.88163488 -147.83207659 1.7727719 -134.08495235 1.66066074 C-127.43563321 1.60650583 -120.78630975 1.5533592 -114.13696289 1.50268555 C-80.21016359 1.24331596 -46.29181373 0.83313044 -12.37096596 0.13809776 C-11.46762205 0.11987276 -10.56427814 0.10164776 -9.63356018 0.08287048 C-8.85441033 0.06680221 -8.07526049 0.05073393 -7.27250004 0.03417873 C-4.8480116 -0.00228593 -2.42472601 -0.00568161 0 0 Z " fill="#FEFEFE" transform="translate(600,733)"/>
<path d="M0 0 C22.6375778 0.65533841 45.22407313 2.10284798 67.82348633 3.52905273 C73.23932323 3.87076297 78.65550874 4.20654839 84.07182026 4.54064083 C88.31820733 4.80328396 92.56438308 5.06922845 96.81050682 5.336092 C98.80545899 5.46107277 100.80047364 5.58506127 102.79555702 5.70792961 C113.0371599 6.34039033 123.26539421 7.05760562 133.48413086 7.99438477 C134.77835323 8.10924052 134.77835323 8.10924052 136.0987215 8.22641659 C143.12626656 8.89805353 149.40256877 10.45172869 156 13 C156.79124268 13.30325195 157.58248535 13.60650391 158.39770508 13.91894531 C164.19154451 16.14885477 169.95662523 18.44627262 175.71240234 20.77246094 C178.75533907 22.0021576 181.80119459 23.224378 184.84765625 24.4453125 C186.81006889 25.2339445 188.77231436 26.02299265 190.734375 26.8125 C191.63146179 27.17303467 192.52854858 27.53356934 193.45281982 27.9050293 C199.0213998 30.15739464 204.52764721 32.52297253 210 35 C209.67 35.66 209.34 36.32 209 37 C208.36310745 36.97117737 207.7262149 36.94235474 207.07002258 36.91265869 C196.97753998 36.67077423 187.199313 38.10668906 177.23046875 39.484375 C175.30415865 39.74455283 173.37774946 40.003998 171.45124817 40.26275635 C166.38733722 40.94477513 161.32473798 41.63607635 156.26239014 42.32958984 C151.21923817 43.01910791 146.17504042 43.70087034 141.13085938 44.3828125 C139.1464922 44.6512278 137.16212737 44.91966033 135.17776489 45.18811035 C134.20405064 45.31982132 133.23033638 45.45153229 132.22711563 45.5872345 C129.30863969 45.98225392 126.39025502 46.37794131 123.47189331 46.77380371 C112.62733613 48.24423305 101.78238254 49.71139453 90.93068886 51.12836456 C88.99032385 51.38218223 87.05035294 51.63900703 85.11039734 51.89593506 C83.39539787 52.11808685 83.39539787 52.11808685 81.64575195 52.34472656 C80.17788994 52.53642426 80.17788994 52.53642426 78.68037415 52.73199463 C70.99340734 53.50059941 70.99340734 53.50059941 67.4609375 50.61328125 C66.80802734 50.09378906 66.15511719 49.57429688 65.48242188 49.0390625 C64.78697266 48.46929687 64.09152344 47.89953125 63.375 47.3125 C57.23937141 42.44465169 51.00713842 37.85876256 44.5 33.5 C37.54529433 28.82091753 30.84607595 23.90911035 24.23608398 18.75634766 C18.65184139 14.4276515 12.89566121 10.40504062 6.99926758 6.51318359 C3.99906392 4.50791202 2.02716917 3.04075375 0 0 Z " fill="#FEFEFE" transform="translate(167,417)"/>
<path d="M0 0 C-9.71446866 7.56926284 -19.59450556 14.89723981 -29.52392578 22.18115234 C-32.75138682 24.55194555 -35.97186974 26.93210947 -39.19189453 29.31298828 C-41.54723394 31.05123362 -43.9081286 32.78172291 -46.26953125 34.51171875 C-49.52222272 36.89801702 -52.74242221 39.32195658 -55.94921875 41.76953125 C-57.54935773 42.97151584 -59.14961395 44.17334438 -60.75 45.375 C-61.47646729 45.940979 -62.20293457 46.50695801 -62.95141602 47.09008789 C-63.64291748 47.60434326 -64.33441895 48.11859863 -65.046875 48.6484375 C-65.64338867 49.10395996 -66.23990234 49.55948242 -66.85449219 50.02880859 C-71.75533817 52.24723888 -77.53339945 50.90290747 -82.6953125 50.15234375 C-83.33973297 50.06045776 -83.98415344 49.96857178 -84.64810181 49.87390137 C-86.05975217 49.67237652 -87.47111003 49.46879447 -88.88220215 49.26339722 C-92.86510722 48.68464792 -96.85061571 48.12432456 -100.8359375 47.5625 C-101.70690063 47.43942978 -102.57786377 47.31635956 -103.47521973 47.18955994 C-129.45990202 43.53261867 -155.49215702 40.17108517 -181.52502441 36.87527466 C-183.40850419 36.63659462 -185.2916633 36.39538809 -187.17480469 36.15405273 C-194.77072285 35.20429176 -202.36284837 34.52100107 -210 34 C-210 33.34 -210 32.68 -210 32 C-201.68212456 28.627732 -193.34668123 25.30023907 -185 22 C-184.29327148 21.72041443 -183.58654297 21.44082886 -182.85839844 21.152771 C-178.36412776 19.37711056 -173.86457468 17.6157056 -169.35906982 15.8687439 C-167.88380437 15.29506986 -166.40985238 14.71800522 -164.93731689 14.13735962 C-162.83942129 13.31110847 -160.73684477 12.49797603 -158.6328125 11.6875 C-157.42512207 11.21699219 -156.21743164 10.74648438 -154.97314453 10.26171875 C-143.46852924 6.35790096 -131.16427657 6.27268702 -119.1484375 5.5625 C-117.08758515 5.43612978 -115.02676417 5.30924711 -112.9659729 5.18188477 C-108.63738026 4.91572401 -104.3085558 4.65389349 -99.97949219 4.39550781 C-94.56423519 4.07222379 -89.14948688 3.74125549 -83.73487473 3.40736389 C-63.22986588 2.143962 -42.72146447 0.9342116 -22.20402908 -0.11056519 C-20.39878205 -0.20285386 -18.59362109 -0.29684328 -16.78855515 -0.39260864 C-14.32363441 -0.52252513 -11.85846879 -0.64524515 -9.39306641 -0.765625 C-8.66665073 -0.8049968 -7.94023506 -0.84436859 -7.19180679 -0.88493347 C-2.22930894 -1.11465447 -2.22930894 -1.11465447 0 0 Z " fill="#FEFEFE" transform="translate(856,419)"/>
<path d="M0 0 C-2.49565251 2.52516805 -4.99732451 5.04429373 -7.5 7.5625 C-8.19609375 8.26697266 -8.8921875 8.97144531 -9.609375 9.69726562 C-13.69489321 13.80169827 -17.87971135 17.70905696 -22.26757812 21.48803711 C-24.27411719 23.23923446 -26.15045288 25.08439762 -28 27 C-30.53972186 29.5792506 -33.12451314 32.02217389 -35.875 34.375 C-39.06682509 37.11621449 -42.04302977 40.00685888 -45 43 C-48.56359983 46.60719127 -52.21924856 49.99477889 -56.0703125 53.2890625 C-58.83832741 55.74329434 -61.39777359 58.3883269 -63.9921875 61.0234375 C-66.53955282 63.53115511 -69.21648288 65.85685463 -71.9453125 68.1640625 C-74.18332564 70.08294806 -74.18332564 70.08294806 -76.53100586 72.9453125 C-80.35703704 76.7636171 -84.38365344 77.62345629 -89.55859375 78.7109375 C-90.48835526 78.92527435 -91.41811676 79.13961121 -92.37605286 79.36044312 C-95.39241505 80.05182556 -98.41448707 80.7133689 -101.4375 81.375 C-104.55715824 82.08192307 -107.67506347 82.79624331 -110.79293823 83.51098633 C-112.87595882 83.98796084 -114.95955953 84.46240896 -117.04373169 84.93432617 C-126.83185292 87.15803922 -136.5381554 89.66023128 -146.22555542 92.28533936 C-148.02913611 92.77371001 -149.83482215 93.2542862 -151.640625 93.734375 C-152.63610352 94.00475586 -153.63158203 94.27513672 -154.65722656 94.55371094 C-157 95 -157 95 -159 94 C-150.69298009 83.72111173 -142.2059952 73.59068844 -133.3125 63.8125 C-130.28287132 60.47772886 -127.39391908 57.06712361 -124.5625 53.5625 C-121.48663412 49.75912497 -118.31246834 46.09917348 -115 42.5 C-106.61134135 33.50318342 -106.61134135 33.50318342 -99.50048828 23.51733398 C-95.82826985 19.82037595 -91.98033658 19.30147392 -86.984375 18.21484375 C-85.94319519 17.97185043 -84.90201538 17.72885712 -83.82928467 17.47850037 C-81.50067413 16.93622883 -79.17015873 16.4020938 -76.83813477 15.87469482 C-72.76235537 14.94584178 -68.69609936 13.98198332 -64.63085938 13.00830078 C-57.84156723 11.38464783 -51.04736077 9.78329462 -44.2490921 8.19765663 C-40.31919537 7.2809278 -36.39025922 6.36048276 -32.46337891 5.4309082 C-28.59263142 4.51464092 -24.71990309 3.60726863 -20.84554291 2.70640373 C-19.38558459 2.36540471 -17.92634419 2.02131601 -16.46787262 1.67401314 C-14.4495486 1.19409007 -12.4288793 0.72567937 -10.40722656 0.26000977 C-9.26272034 -0.0083519 -8.11821411 -0.27671356 -6.93902588 -0.5532074 C-4.16937891 -0.97425091 -2.60001284 -0.94073995 0 0 Z " fill="#FEFEFE" transform="translate(383,511)"/>
<path d="M0 0 C45.21 0 90.42 0 137 0 C134.751886 6.74434199 134.751886 6.74434199 131.9375 9.234375 C131.31496338 9.79882324 130.69242676 10.36327148 130.05102539 10.94482422 C129.37418701 11.54053223 128.69734863 12.13624023 128 12.75 C126.53784587 14.07796121 125.07831013 15.40880981 123.62109375 16.7421875 C122.86038574 17.43666992 122.09967773 18.13115234 121.31591797 18.84667969 C117.46709668 22.42528013 113.7646797 26.14578236 110.0625 29.875 C109.31822754 30.62273682 108.57395508 31.37047363 107.80712891 32.14086914 C105.53589483 34.42508309 103.26750716 36.71208673 101 39 C97.96133748 42.06550245 94.91917974 45.12747745 91.875 48.1875 C91.20090088 48.86989746 90.52680176 49.55229492 89.83227539 50.25537109 C85.93042195 54.1770998 81.91902824 57.90289002 77.72033691 61.50575256 C75.54969888 63.39112182 73.51447294 65.38705433 71.5 67.4375 C70.8296875 68.11683594 70.159375 68.79617188 69.46875 69.49609375 C68.9840625 69.99238281 68.499375 70.48867188 68 71 C62.93814197 66.8184651 58.30357822 62.36344007 53.72265625 57.66015625 C51.60038467 55.58660252 49.46068876 53.64703251 47.21484375 51.71484375 C41.98839647 47.18517432 37.19861807 42.24777322 32.35546875 37.31640625 C28.29426271 33.21065317 24.14434016 29.2994189 19.76757812 25.53173828 C17.60320527 23.65614777 15.53501991 21.70233122 13.5 19.6875 C12.8296875 19.03136719 12.159375 18.37523437 11.46875 17.69921875 C10 16 10 16 10 14 C9.41863281 13.74992188 8.83726562 13.49984375 8.23828125 13.2421875 C5.69864774 11.83275739 4.12269692 10.28427235 2.1875 8.125 C1.56230469 7.44695313 0.93710937 6.76890625 0.29296875 6.0703125 C-0.13371094 5.38710938 -0.56039063 4.70390625 -1 4 C-0.67 2.68 -0.34 1.36 0 0 Z " fill="#FEFEFE" transform="translate(444,798)"/>
<path d="M0 0 C7.94464328 1.34094122 15.74119635 3.06869966 23.55859375 5.01171875 C24.74179703 5.30303177 25.92500031 5.59434479 27.14405823 5.89448547 C30.90931605 6.82237273 34.67340783 7.7548968 38.4375 8.6875 C42.12465884 9.5968257 45.81203498 10.50526391 49.49951172 11.41329956 C51.95508037 12.02045884 54.40967694 12.6315632 56.86328125 13.24661255 C62.51971806 14.66292077 68.17669231 16.05507904 73.86767483 17.32524014 C75.80053023 17.75831359 77.73062419 18.20365223 79.66065979 18.64912415 C82.06165016 19.2022464 84.46726632 19.73580936 86.87779236 20.24577332 C97.09773188 22.64266527 102.10585355 27.58812638 107.74121094 36.16796875 C109.66140743 38.96260694 111.91285886 41.29282442 114.25 43.75 C117.39904337 47.18210345 120.39838391 50.67911025 123.3125 54.3125 C126.86786573 58.72367058 130.61949569 62.87808182 134.5 67 C139.19527372 71.9880506 143.63619824 77.09615298 147.921875 82.4453125 C151.15000231 86.41372465 154.56561588 90.21001208 158 94 C154.77528148 95.61235926 151.66499901 94.09720126 148.3203125 93.2265625 C147.53214645 93.02747787 146.74398041 92.82839325 145.93193054 92.62327576 C143.32785749 91.96391624 140.72644211 91.29465794 138.125 90.625 C136.32657646 90.16660638 134.52799065 89.70884899 132.72924805 89.25170898 C129.95092898 88.54556389 127.17275374 87.83890221 124.39524841 87.12956238 C118.1096935 85.52634928 111.81475261 83.96651958 105.51171875 82.43359375 C103.06246775 81.83467011 100.6133478 81.23521298 98.16424561 80.63568115 C96.6042213 80.25546293 95.04355425 79.87787165 93.48223877 79.50299072 C91.30524405 78.97960542 89.13098914 78.44599353 86.95703125 77.91015625 C85.72960205 77.61246338 84.50217285 77.31477051 83.23754883 77.00805664 C77.67996728 75.27762498 74.23613515 72.48097629 70.19921875 68.359375 C68.85633789 67.00005859 68.85633789 67.00005859 67.48632812 65.61328125 C66.55300203 64.65922908 65.62006122 63.70479984 64.6875 62.75 C59.25058836 57.20934517 53.83787156 51.75825162 47.93676758 46.71191406 C43.52473713 42.8121085 39.47944936 38.51550491 35.35546875 34.31640625 C31.28409371 30.20037261 27.12108713 26.28565756 22.73242188 22.50976562 C20.72485159 20.76021452 18.84932285 18.9153701 17 17 C13.72137425 13.65657928 10.28284569 10.61062236 6.6640625 7.640625 C5 6 5 6 3.9609375 3.859375 C3.08895682 1.64209631 3.08895682 1.64209631 0 1 C0 0.67 0 0.34 0 0 Z " fill="#FEFEFE" transform="translate(641,510)"/>
<path d="M0 0 C0.01030746 0.55852661 0.02061493 1.11705322 0.03123474 1.69250488 C0.13985337 7.53306484 0.25440226 13.37348762 0.37231445 19.21386719 C0.41548678 21.39027013 0.45717346 23.5667031 0.49731445 25.74316406 C0.5554482 28.88095119 0.61901603 32.01858967 0.68359375 35.15625 C0.70030624 36.12115356 0.71701874 37.08605713 0.73423767 38.0802002 C0.35066325 48.41620282 0.35066325 48.41620282 4.40625 57.2734375 C5.14343262 58.03696533 5.14343262 58.03696533 5.89550781 58.81591797 C6.42499023 59.33041504 6.95447266 59.84491211 7.5 60.375 C8.61015295 61.50965604 9.71952284 62.64507874 10.828125 63.78125 C11.37404297 64.33039063 11.91996094 64.87953125 12.48242188 65.4453125 C14.49806725 67.5102465 16.36884471 69.68761012 18.25 71.875 C24.65463383 79.0345078 31.77443684 85.67230547 39 92 C39.58179016 92.51587173 40.16358032 93.03174347 40.76300049 93.56324768 C43.5306693 95.3408317 45.2974076 95.43836637 48.57202148 95.546875 C50.25043373 95.6094751 50.25043373 95.6094751 51.9627533 95.67333984 C53.77363182 95.71128662 53.77363182 95.71128662 55.62109375 95.75 C56.87197281 95.77658691 58.12285187 95.80317383 59.41163635 95.83056641 C62.06407006 95.8764633 64.71535539 95.91362179 67.36791992 95.94042969 C70.0672831 95.971348 72.76125697 96.04055504 75.45874023 96.14550781 C92.71686237 97.45759855 92.71686237 97.45759855 107.56813049 90.27783203 C109.92870564 87.65215997 111.95288854 84.87510319 114 82 C114.66 82 115.32 82 116 82 C116 81.34 116 80.68 116 80 C117.45336914 78.56567383 117.45336914 78.56567383 119.47265625 76.89453125 C124.01498544 73.03099845 128.23438714 68.91411582 132.4375 64.6875 C133.15615234 63.97271484 133.87480469 63.25792969 134.61523438 62.52148438 C135.63907227 61.49571289 135.63907227 61.49571289 136.68359375 60.44921875 C137.29775146 59.83393311 137.91190918 59.21864746 138.54467773 58.5847168 C140.09170925 57.04624733 140.09170925 57.04624733 141 55 C141.66 55 142.32 55 143 55 C142.99492432 54.13544189 142.98984863 53.27088379 142.98461914 52.38012695 C142.95361691 42.78019281 143.10807306 33.19359846 143.37231445 23.59741211 C143.43864632 21.14512058 143.49767632 18.69271288 143.55664062 16.24023438 C143.59851652 14.67446729 143.64081752 13.1087115 143.68359375 11.54296875 C143.70030624 10.81289108 143.71701874 10.08281342 143.73423767 9.33061218 C143.88562205 4.22875589 143.88562205 4.22875589 145 2 C146.69271945 2.5974304 148.35380887 3.28426473 150 4 C151.54494141 4.66769409 151.54494141 4.66769409 153.12109375 5.34887695 C156.38210216 8.35186968 156.47296425 8.96008363 156.83984375 13.17651367 C156.90656139 15.33954818 156.93671494 17.50390569 156.9375 19.66796875 C156.96034058 21.39204704 156.96034058 21.39204704 156.98364258 23.1509552 C157.00525492 25.58435382 157.01094638 28.01793804 157.00195312 30.45141602 C157.00001492 34.15895563 157.08305914 37.85811781 157.171875 41.56445312 C157.34870831 58.74259785 157.34870831 58.74259785 153.96679688 64.40307617 C151.43457282 66.65450536 148.9176859 68.29239326 146 70 C143.92010545 71.93945801 143.92010545 71.93945801 142.09375 74.02734375 C141.50013672 74.66929687 140.90652344 75.31125 140.29492188 75.97265625 C139.70259766 76.62105469 139.11027344 77.26945312 138.5 77.9375 C134.24270348 82.54276929 129.96547926 87.09578494 125.5 91.5 C122.11256183 94.8426456 118.91871473 98.26956705 115.86328125 101.91796875 C114.94095703 102.94857422 114.94095703 102.94857422 114 104 C113.61328629 104.55754471 113.22657257 105.11508942 112.82814026 105.68952942 C110.14262869 109.06051175 108.04157616 110.76240042 103.78102112 111.73429871 C99.70873506 112.09458532 95.6872753 112.24152227 91.6015625 112.28125 C90.08286478 112.31143268 88.56417786 112.34216381 87.04550171 112.37341309 C83.8629002 112.42874521 80.68158652 112.4537983 77.49853516 112.46191406 C74.26350219 112.47471228 71.03786282 112.5436874 67.80517578 112.66699219 C38.22312696 113.77665565 38.22312696 113.77665565 28.8321228 105.20153809 C26.1878952 102.3402774 23.81539645 99.39391137 21.57530212 96.20744324 C17.43455181 90.40508245 12.41709749 85.29036249 7.35546875 80.29296875 C6.8596077 79.80089432 6.36374664 79.30881989 5.8528595 78.80183411 C4.30021301 77.26120024 2.74430102 75.72393483 1.1875 74.1875 C-0.88441659 72.14223185 -2.95294443 70.09362044 -5.01953125 68.04296875 C-6.38235229 66.69755005 -6.38235229 66.69755005 -7.77270508 65.32495117 C-11.07781794 61.87492488 -12.24716122 59.8199326 -12.38574219 55.12060547 C-12.41786804 54.12882294 -12.4499939 53.13704041 -12.48309326 52.11520386 C-12.57235447 47.5696728 -12.65416095 43.02471954 -12.70019531 38.47851562 C-12.73325545 36.08651734 -12.7877614 33.69471429 -12.86425781 31.30371094 C-13.53067336 10.35508295 -13.53067336 10.35508295 -9.79101562 5.37597656 C-3.94124559 0 -3.94124559 0 0 0 Z " fill="#000000" transform="translate(440,424)"/>
<path d="M0 0 C3.91939465 3.80411834 7.49102731 7.81576108 11 12 C9.64941886 15.01388073 8.14395225 17.1034677 5.8046875 19.42578125 C5.17046875 20.05806641 4.53625 20.69035156 3.8828125 21.34179688 C3.22023438 21.99212891 2.55765625 22.64246094 1.875 23.3125 C1.235625 23.95123047 0.59625 24.58996094 -0.0625 25.24804688 C-3.21714339 28.37418445 -6.41811629 31.39388102 -9.79296875 34.28125 C-15.20605606 38.95828946 -20.16805823 44.09751563 -25.1875 49.1875 C-27.115505 51.142305 -29.04695367 53.09361537 -30.98046875 55.04296875 C-31.82504639 55.89914795 -32.66962402 56.75532715 -33.53979492 57.63745117 C-36 60 -36 60 -38.79248047 61.6574707 C-41.82263567 64.87294728 -41.52638568 67.10780164 -41.46180725 71.40844727 C-41.40143532 72.90782837 -41.40143532 72.90782837 -41.33984375 74.4375 C-41.31800522 75.49445068 -41.29616669 76.55140137 -41.27366638 77.64038086 C-41.22540636 79.91771495 -41.16675185 82.19484761 -41.09881592 84.47167969 C-40.96806868 89.14013951 -40.91625464 93.80822623 -40.86112976 98.47808838 C-40.7840911 104.652431 -40.67086431 110.8261419 -40.5625 117 C-40.52940231 118.94428894 -40.52940231 118.94428894 -40.49563599 120.92785645 C-40.11471207 143.28845089 -39.62409665 165.64489811 -39 188 C-42.23662068 184.7791187 -45.38988516 181.5257253 -48.4375 178.125 C-49.15808594 177.32320312 -49.87867188 176.52140625 -50.62109375 175.6953125 C-51.40613281 174.80585937 -52.19117188 173.91640625 -53 173 C-53.50022958 172.52684483 -54.00045916 172.05368965 -54.51584721 171.56619644 C-58.61701117 167.43353949 -59.70646776 164.36707997 -59.84649658 158.58781433 C-59.83906433 157.64843521 -59.83163208 156.70905609 -59.82397461 155.74121094 C-59.8393074 154.73373306 -59.8546402 153.72625519 -59.87043762 152.68824768 C-59.91201268 149.36974054 -59.90926453 146.05311106 -59.90234375 142.734375 C-59.9140132 140.41659863 -59.92701898 138.09882864 -59.94129944 135.78106689 C-59.96366302 130.92561037 -59.96283168 126.07080826 -59.94702148 121.21533203 C-59.92966126 115.01306133 -59.98037303 108.81348542 -60.0500555 102.61166 C-60.0944052 97.82434604 -60.09686422 93.03767377 -60.08752632 88.25019073 C-60.08905988 85.96495486 -60.10465931 83.67968116 -60.13496208 81.39464569 C-60.36830744 61.33388525 -60.36830744 61.33388525 -54.79956055 54.39038086 C-53.24536577 52.87851913 -51.64933352 51.40746091 -50 50 C-48.95249651 48.90073313 -47.91299896 47.79370771 -46.88623047 46.67504883 C-45.97244629 45.77810303 -45.05866211 44.88115723 -44.1171875 43.95703125 C-43.61381866 43.45886398 -43.11044983 42.96069672 -42.59182739 42.44743347 C-41.02442279 40.8974154 -39.45035386 39.35443431 -37.875 37.8125 C-35.78557113 35.76002658 -33.69987545 33.70384387 -31.6171875 31.64453125 C-30.87610748 30.91401047 -30.87610748 30.91401047 -30.12005615 30.16873169 C-26.64485238 26.71620282 -23.40674724 23.12774681 -20.30908203 19.3347168 C-19.87708496 18.89426025 -19.44508789 18.45380371 -19 18 C-18.34 18 -17.68 18 -17 18 C-16.74605469 17.40832031 -16.49210937 16.81664062 -16.23046875 16.20703125 C-14.86446788 13.7569027 -13.47063789 12.4640418 -11.3125 10.6875 C-7.32505143 7.31967324 -3.63748264 3.73978684 0 0 Z " fill="#FEFEFE" transform="translate(442,558)"/>
<path d="M0 0 C4.5032086 1.41529413 6.80350478 3.57518369 10 7 C11.12269899 8.10650622 12.24785929 9.21051868 13.375 10.3125 C15.77329235 12.70566602 18.02948045 15.16222189 20.22338867 17.74316406 C23.94076164 22.01486003 27.94389584 25.90392213 32.05078125 29.796875 C33.56971433 31.2642237 35.08725163 32.7330184 36.60351562 34.203125 C38.95926536 36.48492744 41.32095342 38.75796995 43.70727539 41.0078125 C46.03320927 43.20571113 48.32493484 45.43494911 50.61328125 47.671875 C51.32470779 48.32855164 52.03613434 48.98522827 52.76911926 49.6618042 C62.77098073 59.60311884 60.44337884 75.78639963 60.6171875 88.953125 C60.63033115 89.94817802 60.64347481 90.94323105 60.65701675 91.96843719 C60.72182073 97.23231837 60.77082179 102.49612492 60.81005859 107.76025391 C60.84568155 112.08079846 60.91535286 116.39873103 61.01513672 120.71826172 C61.13640697 125.97796969 61.19711684 131.23526089 61.21640396 136.49629974 C61.23335899 138.48178163 61.27061067 140.46721226 61.3298912 142.45188141 C61.76112648 157.7049525 58.29752685 165.85715469 48 177 C46.86313537 178.30957306 45.73173895 179.62391735 44.60641479 180.94342041 C44.10636366 181.52908909 43.60631252 182.11475777 43.09110832 182.71817398 C42.73104258 183.14117657 42.37097683 183.56417915 42 184 C41.34 183.67 40.68 183.34 40 183 C40.03758423 181.43409119 40.03758423 181.43409119 40.07592773 179.83654785 C40.31536377 169.83962751 40.55068446 159.84261699 40.78230286 149.84551239 C40.90140994 144.70994772 41.02180697 139.57442108 41.14550781 134.43896484 C41.40403023 123.67155832 41.6423384 112.90428787 41.83586121 102.13549805 C41.9321775 96.93619298 42.06372698 91.73993841 42.23558044 86.54259491 C42.32855043 83.55870514 42.39347611 80.57468451 42.45089722 77.58992004 C42.49832846 75.60133072 42.58164391 73.61369714 42.66625977 71.62634277 C42.86386252 65.32770608 42.86386252 65.32770608 40.47944641 59.68049622 C38.74145553 57.91554246 37.00611844 56.44588502 35 55 C34.31292969 54.38511719 33.62585938 53.77023437 32.91796875 53.13671875 C32.34691406 52.65847656 31.77585937 52.18023438 31.1875 51.6875 C27.13967662 48.20339671 23.41195451 44.45011544 19.6875 40.625 C17.60796295 38.59382428 15.51462187 36.69869308 13.3125 34.80859375 C8.30196848 30.4655837 3.66317538 25.77223551 -1 21.0625 C-1.87011719 20.18787109 -2.74023438 19.31324219 -3.63671875 18.41210938 C-5.76013549 16.27702551 -7.88116378 14.13962795 -10 12 C-9.05150389 10.7172504 -8.10049613 9.43635772 -7.1484375 8.15625 C-6.61911621 7.44275391 -6.08979492 6.72925781 -5.54443359 5.99414062 C-3.85301919 3.81022143 -2.02937954 1.87327342 0 0 Z " fill="#FEFEFE" transform="translate(581,560)"/>
<path d="M0 0 C4.30166203 1.61709787 7.47566894 3.68297251 11.125 6.5 C14.04998988 8.74662565 16.93097688 10.95398459 20 13 C20.34057617 15.70556641 20.34057617 15.70556641 20.29296875 19.1015625 C20.2784668 20.91914063 20.2784668 20.91914063 20.26367188 22.7734375 C20.23853516 24.04445313 20.21339844 25.31546875 20.1875 26.625 C20.16719727 28.543125 20.16719727 28.543125 20.14648438 30.5 C20.11103196 33.66708282 20.06161441 36.83333541 20 40 C12.79053511 42.7652742 5.50094812 45.27443881 -1.8125 47.75 C-3.65231445 48.38615234 -3.65231445 48.38615234 -5.52929688 49.03515625 C-6.70169922 49.43089844 -7.87410156 49.82664062 -9.08203125 50.234375 C-10.14655518 50.59756836 -11.2110791 50.96076172 -12.30786133 51.33496094 C-15 52 -15 52 -18 51 C-16.0828832 45.34289636 -14.16217842 39.6870279 -12.23828125 34.03222656 C-11.58562455 32.1123066 -10.93391319 30.19206498 -10.28320312 28.27148438 C-9.34239046 25.49522124 -8.39807217 22.72017072 -7.453125 19.9453125 C-7.02474335 18.67749435 -7.02474335 18.67749435 -6.58770752 17.38406372 C-4.58166668 11.50830213 -2.35541337 5.74431277 0 0 Z " fill="#FEFEFE" transform="translate(577,280)"/>
<path d="M0 0 C2 1 2 1 2.94213867 3.35058594 C3.2641626 4.38473633 3.58618652 5.41888672 3.91796875 6.484375 C4.28220947 7.63824707 4.6464502 8.79211914 5.02172852 9.98095703 C5.40643311 11.22474121 5.7911377 12.46852539 6.1875 13.75 C6.78877261 15.66168205 7.3900551 17.5733615 7.9929657 19.48452759 C8.3999748 20.77493575 8.80614857 22.06560768 9.21150208 23.35653687 C11.36368137 30.19687562 13.65110604 36.99019061 15.9675293 43.77636719 C18 49.78942175 18 49.78942175 18 52 C17.02752319 51.73280151 17.02752319 51.73280151 16.03540039 51.46020508 C10.94741919 50.06682541 5.85456571 48.70310508 0.74609375 47.38671875 C-1.35707301 46.82143557 -3.45993661 46.25502329 -5.5625 45.6875 C-6.64080078 45.41744141 -7.71910156 45.14738281 -8.83007812 44.86914062 C-16.5752006 42.73473462 -16.5752006 42.73473462 -18.67578125 39.1015625 C-18.83626953 37.56628906 -18.83626953 37.56628906 -19 36 C-19.13664062 35.11699219 -19.27328125 34.23398437 -19.4140625 33.32421875 C-19.56134088 31.48323906 -19.68725522 29.64048034 -19.796875 27.796875 C-19.9293697 25.05514413 -19.9293697 25.05514413 -20.515625 22.640625 C-20.95404315 19.9529311 -20.988444 18.56197592 -20 16 C-16.48173354 12.59054591 -12.6535884 9.86428528 -8.60742188 7.12060547 C-5.53759772 4.98049416 -2.80016772 2.47456682 0 0 Z " fill="#FDFEFE" transform="translate(446,278)"/>
</svg>
